<?xml version="1.0" encoding="UTF-8"?>
<svg version="1.1" xmlns="http://www.w3.org/2000/svg" width="64" height="64">
<path d="M0 0 C21.12 0 42.24 0 64 0 C64 21.12 64 42.24 64 64 C42.88 64 21.76 64 0 64 C0 42.88 0 21.76 0 0 Z " fill="#6A5A51" transform="translate(0,0)"/>
<path d="M0 0 C9.24 0 18.48 0 28 0 C28 21.12 28 42.24 28 64 C24.04 64 20.08 64 16 64 C16 63.34 16 62.68 16 62 C16.66 62 17.32 62 18 62 C18 61.34 18 60.68 18 60 C18.66 60 19.32 60 20 60 C20 59.34 20 58.68 20 58 C20.66 58 21.32 58 22 58 C22 57.34 22 56.68 22 56 C20.68 56 19.36 56 18 56 C18 56.66 18 57.32 18 58 C7.44 58 -3.12 58 -14 58 C-14 57.34 -14 56.68 -14 56 C-15.98 56 -17.96 56 -20 56 C-20 54.02 -20 52.04 -20 50 C-19.34 50 -18.68 50 -18 50 C-18 51.32 -18 52.64 -18 54 C-11.4 54 -4.8 54 2 54 C2 53.34 2 52.68 2 52 C2.66 52 3.32 52 4 52 C4 51.34 4 50.68 4 50 C2.02 50 0.04 50 -2 50 C-2 50.66 -2 51.32 -2 52 C-2.66 52 -3.32 52 -4 52 C-4 51.34 -4 50.68 -4 50 C-5.98 50 -7.96 50 -10 50 C-10 49.34 -10 48.68 -10 48 C-11.32 48 -12.64 48 -14 48 C-14 47.34 -14 46.68 -14 46 C-14.66 46 -15.32 46 -16 46 C-16 45.34 -16 44.68 -16 44 C-17.32 44 -18.64 44 -20 44 C-20 42.68 -20 41.36 -20 40 C-20.66 40 -21.32 40 -22 40 C-22 39.34 -22 38.68 -22 38 C-20.68 38 -19.36 38 -18 38 C-18 38.66 -18 39.32 -18 40 C-17.34 40 -16.68 40 -16 40 C-16 38.02 -16 36.04 -16 34 C-15.34 34 -14.68 34 -14 34 C-14 32.68 -14 31.36 -14 30 C-13.34 30 -12.68 30 -12 30 C-12 29.34 -12 28.68 -12 28 C-8.7 28 -5.4 28 -2 28 C-2 29.32 -2 30.64 -2 32 C-1.34 32 -0.68 32 0 32 C0 31.34 0 30.68 0 30 C1.32 30 2.64 30 4 30 C4 30.66 4 31.32 4 32 C4.66 32 5.32 32 6 32 C6 31.34 6 30.68 6 30 C6.66 30 7.32 30 8 30 C8 28.68 8 27.36 8 26 C8.66 26 9.32 26 10 26 C10 25.34 10 24.68 10 24 C10.66 24 11.32 24 12 24 C12 25.98 12 27.96 12 30 C13.98 30 15.96 30 18 30 C18 25.38 18 20.76 18 16 C17.34 16 16.68 16 16 16 C16 15.34 16 14.68 16 14 C15.34 14 14.68 14 14 14 C14 13.34 14 12.68 14 12 C13.34 12 12.68 12 12 12 C12 11.34 12 10.68 12 10 C11.34 10 10.68 10 10 10 C10 9.34 10 8.68 10 8 C9.34 8 8.68 8 8 8 C8 7.34 8 6.68 8 6 C7.34 6 6.68 6 6 6 C6 5.34 6 4.68 6 4 C4.68 4 3.36 4 2 4 C2 3.34 2 2.68 2 2 C1.34 2 0.68 2 0 2 C0 1.34 0 0.68 0 0 Z " fill="#6F635D" transform="translate(36,0)"/>
<path d="M0 0 C11.22 0 22.44 0 34 0 C34 0.66 34 1.32 34 2 C32.02 2 30.04 2 28 2 C28 2.66 28 3.32 28 4 C26.68 4 25.36 4 24 4 C24 4.66 24 5.32 24 6 C23.34 6 22.68 6 22 6 C22 6.66 22 7.32 22 8 C21.34 8 20.68 8 20 8 C20 8.66 20 9.32 20 10 C19.34 10 18.68 10 18 10 C18 10.66 18 11.32 18 12 C17.34 12 16.68 12 16 12 C16 12.66 16 13.32 16 14 C15.34 14 14.68 14 14 14 C14 14.66 14 15.32 14 16 C13.34 16 12.68 16 12 16 C12 16.66 12 17.32 12 18 C11.34 18 10.68 18 10 18 C9.855625 18.86625 9.71125 19.7325 9.5625 20.625 C9.04166667 23.75 8.52083333 26.875 8 30 C10.64 30 13.28 30 16 30 C16 30.66 16 31.32 16 32 C14.68 32 13.36 32 12 32 C12 32.66 12 33.32 12 34 C10.68 34 9.36 34 8 34 C8 35.32 8 36.64 8 38 C9.32 38 10.64 38 12 38 C12 39.32 12 40.64 12 42 C11.34 42 10.68 42 10 42 C10 43.32 10 44.64 10 46 C8.68 46 7.36 46 6 46 C6 45.34 6 44.68 6 44 C5.34 44 4.68 44 4 44 C4 43.34 4 42.68 4 42 C3.34 42 2.68 42 2 42 C2 40.02 2 38.04 2 36 C1.34 36 0.68 36 0 36 C0 24.12 0 12.24 0 0 Z " fill="#C4324B" transform="translate(0,0)"/>
<path d="M0 0 C3.3 0 6.6 0 10 0 C10 1.32 10 2.64 10 4 C10.66 4 11.32 4 12 4 C12 3.34 12 2.68 12 2 C13.32 2 14.64 2 16 2 C16 2.66 16 3.32 16 4 C16.66 4 17.32 4 18 4 C18 4.66 18 5.32 18 6 C17.34 6 16.68 6 16 6 C16 6.66 16 7.32 16 8 C14.02 8 12.04 8 10 8 C10 7.34 10 6.68 10 6 C8.68 6 7.36 6 6 6 C6 6.66 6 7.32 6 8 C6.66 8 7.32 8 8 8 C8 8.66 8 9.32 8 10 C10.64 10 13.28 10 16 10 C16 11.32 16 12.64 16 14 C16.66 14 17.32 14 18 14 C18 14.66 18 15.32 18 16 C17.34 16 16.68 16 16 16 C16 17.32 16 18.64 16 20 C17.32 20 18.64 20 20 20 C20 21.32 20 22.64 20 24 C22.64 24 25.28 24 28 24 C28 25.32 28 26.64 28 28 C27.34 28 26.68 28 26 28 C26 28.66 26 29.32 26 30 C16.76 30 7.52 30 -2 30 C-2 29.34 -2 28.68 -2 28 C-3.98 28 -5.96 28 -8 28 C-8 26.02 -8 24.04 -8 22 C-7.34 22 -6.68 22 -6 22 C-6 23.32 -6 24.64 -6 26 C0.6 26 7.2 26 14 26 C14 25.34 14 24.68 14 24 C14.66 24 15.32 24 16 24 C16 23.34 16 22.68 16 22 C14.02 22 12.04 22 10 22 C10 22.66 10 23.32 10 24 C9.34 24 8.68 24 8 24 C8 23.34 8 22.68 8 22 C6.02 22 4.04 22 2 22 C2 21.34 2 20.68 2 20 C0.68 20 -0.64 20 -2 20 C-2 19.34 -2 18.68 -2 18 C-2.66 18 -3.32 18 -4 18 C-4 17.34 -4 16.68 -4 16 C-5.32 16 -6.64 16 -8 16 C-8 14.68 -8 13.36 -8 12 C-8.66 12 -9.32 12 -10 12 C-10 11.34 -10 10.68 -10 10 C-8.68 10 -7.36 10 -6 10 C-6 10.66 -6 11.32 -6 12 C-5.34 12 -4.68 12 -4 12 C-4 10.02 -4 8.04 -4 6 C-3.34 6 -2.68 6 -2 6 C-2 4.68 -2 3.36 -2 2 C-1.34 2 -0.68 2 0 2 C0 1.34 0 0.68 0 0 Z " fill="#75726F" transform="translate(24,28)"/>
<path d="M0 0 C0.66 0 1.32 0 2 0 C2 0.66 2 1.32 2 2 C2.66 2 3.32 2 4 2 C4 2.66 4 3.32 4 4 C5.32 4 6.64 4 8 4 C8 4.66 8 5.32 8 6 C8.66 6 9.32 6 10 6 C10 6.66 10 7.32 10 8 C10.66 8 11.32 8 12 8 C12 8.66 12 9.32 12 10 C12.66 10 13.32 10 14 10 C14 10.66 14 11.32 14 12 C14.66 12 15.32 12 16 12 C16 12.66 16 13.32 16 14 C16.66 14 17.32 14 18 14 C18 14.66 18 15.32 18 16 C18.66 16 19.32 16 20 16 C20 20.62 20 25.24 20 30 C18.02 30 16.04 30 14 30 C14 26.7 14 23.4 14 20 C13.34 20 12.68 20 12 20 C12 19.34 12 18.68 12 18 C11.34 18 10.68 18 10 18 C10 18.66 10 19.32 10 20 C8.02 20 6.04 20 4 20 C4 20.66 4 21.32 4 22 C3.34 22 2.68 22 2 22 C2 19.36 2 16.72 2 14 C0.02 14 -1.96 14 -4 14 C-4 12.68 -4 11.36 -4 10 C-4.66 10 -5.32 10 -6 10 C-6 11.98 -6 13.96 -6 16 C-7.32 16 -8.64 16 -10 16 C-10 16.66 -10 17.32 -10 18 C-10.66 18 -11.32 18 -12 18 C-12 18.66 -12 19.32 -12 20 C-12.66 20 -13.32 20 -14 20 C-14 19.34 -14 18.68 -14 18 C-14.66 18 -15.32 18 -16 18 C-16 19.98 -16 21.96 -16 24 C-15.34 24 -14.68 24 -14 24 C-14 24.66 -14 25.32 -14 26 C-15.32 26 -16.64 26 -18 26 C-18 25.34 -18 24.68 -18 24 C-18.66 24 -19.32 24 -20 24 C-20 25.32 -20 26.64 -20 28 C-21.32 28 -22.64 28 -24 28 C-24 27.34 -24 26.68 -24 26 C-23.34 26 -22.68 26 -22 26 C-22 25.34 -22 24.68 -22 24 C-22.66 24 -23.32 24 -24 24 C-24 22.02 -24 20.04 -24 18 C-23.34 18 -22.68 18 -22 18 C-22 17.34 -22 16.68 -22 16 C-21.34 16 -20.68 16 -20 16 C-20 15.34 -20 14.68 -20 14 C-19.34 14 -18.68 14 -18 14 C-18 13.34 -18 12.68 -18 12 C-17.34 12 -16.68 12 -16 12 C-16 11.34 -16 10.68 -16 10 C-15.34 10 -14.68 10 -14 10 C-14 9.34 -14 8.68 -14 8 C-13.34 8 -12.68 8 -12 8 C-12 7.34 -12 6.68 -12 6 C-11.34 6 -10.68 6 -10 6 C-10 5.34 -10 4.68 -10 4 C-8.68 4 -7.36 4 -6 4 C-6 3.34 -6 2.68 -6 2 C-4.02 2 -2.04 2 0 2 C0 1.34 0 0.68 0 0 Z " fill="#2C291D" transform="translate(34,0)"/>
<path d="M0 0 C9.24 0 18.48 0 28 0 C28 12.54 28 25.08 28 38 C27.34 38 26.68 38 26 38 C26 37.34 26 36.68 26 36 C25.34 36 24.68 36 24 36 C24 35.34 24 34.68 24 34 C23.34 34 22.68 34 22 34 C22 33.34 22 32.68 22 32 C20.68 32 19.36 32 18 32 C18 26.72 18 21.44 18 16 C17.34 16 16.68 16 16 16 C16 15.34 16 14.68 16 14 C15.34 14 14.68 14 14 14 C14 13.34 14 12.68 14 12 C13.34 12 12.68 12 12 12 C12 11.34 12 10.68 12 10 C11.34 10 10.68 10 10 10 C10 9.34 10 8.68 10 8 C9.34 8 8.68 8 8 8 C8 7.34 8 6.68 8 6 C7.34 6 6.68 6 6 6 C6 5.34 6 4.68 6 4 C4.68 4 3.36 4 2 4 C2 3.34 2 2.68 2 2 C1.34 2 0.68 2 0 2 C0 1.34 0 0.68 0 0 Z " fill="#BD3049" transform="translate(36,0)"/>
<path d="M0 0 C0.66 0 1.32 0 2 0 C2 1.32 2 2.64 2 4 C2.66 4 3.32 4 4 4 C4 4.66 4 5.32 4 6 C4.66 6 5.32 6 6 6 C6 6.66 6 7.32 6 8 C7.32 8 8.64 8 10 8 C10 8.66 10 9.32 10 10 C11.32 10 12.64 10 14 10 C14 10.66 14 11.32 14 12 C15.98 12 17.96 12 20 12 C20 12.66 20 13.32 20 14 C29.24 14 38.48 14 48 14 C48 13.34 48 12.68 48 12 C49.98 12 51.96 12 54 12 C54 11.34 54 10.68 54 10 C55.32 10 56.64 10 58 10 C58 10.66 58 11.32 58 12 C57.34 12 56.68 12 56 12 C56 12.66 56 13.32 56 14 C55.34 14 54.68 14 54 14 C54 14.66 54 15.32 54 16 C53.34 16 52.68 16 52 16 C52 16.66 52 17.32 52 18 C34.84 18 17.68 18 0 18 C0 12.06 0 6.12 0 0 Z " fill="#220306" transform="translate(0,46)"/>
<path d="M0 0 C0.66 0 1.32 0 2 0 C2 1.98 2 3.96 2 6 C2.66 6 3.32 6 4 6 C4 6.66 4 7.32 4 8 C4.66 8 5.32 8 6 8 C6 8.66 6 9.32 6 10 C7.32 10 8.64 10 10 10 C10 10.66 10 11.32 10 12 C12.64 12 15.28 12 18 12 C18 11.34 18 10.68 18 10 C19.32 10 20.64 10 22 10 C22 10.66 22 11.32 22 12 C23.32 12 24.64 12 26 12 C26 12.66 26 13.32 26 14 C27.98 14 29.96 14 32 14 C32 14.66 32 15.32 32 16 C32.66 16 33.32 16 34 16 C34 15.34 34 14.68 34 14 C35.98 14 37.96 14 40 14 C40 14.66 40 15.32 40 16 C39.34 16 38.68 16 38 16 C38 16.66 38 17.32 38 18 C31.4 18 24.8 18 18 18 C18 16.68 18 15.36 18 14 C17.34 14 16.68 14 16 14 C16 15.98 16 17.96 16 20 C17.98 20 19.96 20 22 20 C22 20.66 22 21.32 22 22 C30.58 22 39.16 22 48 22 C48 22.66 48 23.32 48 24 C38.76 24 29.52 24 20 24 C20 23.34 20 22.68 20 22 C18.02 22 16.04 22 14 22 C14 21.34 14 20.68 14 20 C12.68 20 11.36 20 10 20 C10 19.34 10 18.68 10 18 C8.68 18 7.36 18 6 18 C6 17.34 6 16.68 6 16 C5.34 16 4.68 16 4 16 C4 15.34 4 14.68 4 14 C3.34 14 2.68 14 2 14 C2 12.68 2 11.36 2 10 C1.34 10 0.68 10 0 10 C0 6.7 0 3.4 0 0 Z " fill="#6A5051" transform="translate(0,36)"/>
<path d="M0 0 C1.32 0 2.64 0 4 0 C4 0.66 4 1.32 4 2 C5.32 2 6.64 2 8 2 C8 2.66 8 3.32 8 4 C8.66 4 9.32 4 10 4 C10 2.68 10 1.36 10 0 C11.32 0 12.64 0 14 0 C14 0.66 14 1.32 14 2 C14.66 2 15.32 2 16 2 C16 2.66 16 3.32 16 4 C16.66 4 17.32 4 18 4 C18 4.66 18 5.32 18 6 C18.66 6 19.32 6 20 6 C20 6.66 20 7.32 20 8 C20.66 8 21.32 8 22 8 C22 12.62 22 17.24 22 22 C20.02 22 18.04 22 16 22 C16 18.7 16 15.4 16 12 C15.34 12 14.68 12 14 12 C14 11.34 14 10.68 14 10 C13.34 10 12.68 10 12 10 C12 10.66 12 11.32 12 12 C10.02 12 8.04 12 6 12 C6 12.66 6 13.32 6 14 C5.34 14 4.68 14 4 14 C4 11.36 4 8.72 4 6 C2.02 6 0.04 6 -2 6 C-2 4.68 -2 3.36 -2 2 C-1.34 2 -0.68 2 0 2 C0 1.34 0 0.68 0 0 Z " fill="#422E25" transform="translate(32,8)"/>
<path d="M0 0 C9.24 0 18.48 0 28 0 C28 0.66 28 1.32 28 2 C26.02 2 24.04 2 22 2 C22 2.66 22 3.32 22 4 C20.68 4 19.36 4 18 4 C18 4.66 18 5.32 18 6 C17.34 6 16.68 6 16 6 C16 6.66 16 7.32 16 8 C15.34 8 14.68 8 14 8 C14 8.66 14 9.32 14 10 C13.34 10 12.68 10 12 10 C12 10.66 12 11.32 12 12 C11.34 12 10.68 12 10 12 C10 12.66 10 13.32 10 14 C9.34 14 8.68 14 8 14 C8 14.66 8 15.32 8 16 C7.34 16 6.68 16 6 16 C6 16.66 6 17.32 6 18 C5.34 18 4.68 18 4 18 C3.67 19.32 3.34 20.64 3 22 C2.875 16.25 2.875 16.25 4 14 C3.34 13.67 2.68 13.34 2 13 C2.515625 12.401875 3.03125 11.80375 3.5625 11.1875 C4.036875 10.465625 4.51125 9.74375 5 9 C4.67 8.01 4.34 7.02 4 6 C3.01 6 2.02 6 1 6 C0.67 7.32 0.34 8.64 0 10 C0 6.7 0 3.4 0 0 Z " fill="#BA2E46" transform="translate(6,0)"/>
<path d="M0 0 C1.98 0 3.96 0 6 0 C6 0.66 6 1.32 6 2 C5.34 2 4.68 2 4 2 C4 3.32 4 4.64 4 6 C5.32 6 6.64 6 8 6 C8 5.34 8 4.68 8 4 C8.66 4 9.32 4 10 4 C10 4.66 10 5.32 10 6 C11.98 6 13.96 6 16 6 C16 6.66 16 7.32 16 8 C15.34 8 14.68 8 14 8 C14 9.32 14 10.64 14 12 C14.66 12 15.32 12 16 12 C16 11.34 16 10.68 16 10 C16.66 10 17.32 10 18 10 C18 9.34 18 8.68 18 8 C18.66 8 19.32 8 20 8 C20 7.34 20 6.68 20 6 C20.66 6 21.32 6 22 6 C22 11.28 22 16.56 22 22 C18.04 22 14.08 22 10 22 C10 21.34 10 20.68 10 20 C10.66 20 11.32 20 12 20 C12 19.34 12 18.68 12 18 C12.66 18 13.32 18 14 18 C14 17.34 14 16.68 14 16 C14.66 16 15.32 16 16 16 C16 15.34 16 14.68 16 14 C14.68 14 13.36 14 12 14 C12 14.66 12 15.32 12 16 C10.68 16 9.36 16 8 16 C8 15.34 8 14.68 8 14 C8.66 14 9.32 14 10 14 C10 12.68 10 11.36 10 10 C7.36 10 4.72 10 2 10 C2 8.68 2 7.36 2 6 C0.68 6 -0.64 6 -2 6 C-2 4.68 -2 3.36 -2 2 C-1.34 2 -0.68 2 0 2 C0 1.34 0 0.68 0 0 Z " fill="#5A4F4B" transform="translate(42,42)"/>
<path d="M0 0 C1.98 0 3.96 0 6 0 C6 0.66 6 1.32 6 2 C6.66 2 7.32 2 8 2 C8 2.66 8 3.32 8 4 C7.34 4 6.68 4 6 4 C6 5.32 6 6.64 6 8 C7.32 8 8.64 8 10 8 C10 9.32 10 10.64 10 12 C12.64 12 15.28 12 18 12 C18 13.32 18 14.64 18 16 C17.34 16 16.68 16 16 16 C16 16.66 16 17.32 16 18 C6.76 18 -2.48 18 -12 18 C-12 17.34 -12 16.68 -12 16 C-13.98 16 -15.96 16 -18 16 C-18 14.02 -18 12.04 -18 10 C-17.34 10 -16.68 10 -16 10 C-16 11.32 -16 12.64 -16 14 C-9.4 14 -2.8 14 4 14 C4 13.34 4 12.68 4 12 C4.66 12 5.32 12 6 12 C6 11.34 6 10.68 6 10 C5.34 10 4.68 10 4 10 C4 8.02 4 6.04 4 4 C2.68 4 1.36 4 0 4 C0 2.68 0 1.36 0 0 Z " fill="#696560" transform="translate(34,40)"/>
<path d="M0 0 C0.66 0 1.32 0 2 0 C2 1.32 2 2.64 2 4 C3.98 4 5.96 4 8 4 C8 6.64 8 9.28 8 12 C8.66 12 9.32 12 10 12 C10 11.34 10 10.68 10 10 C11.98 10 13.96 10 16 10 C16 9.34 16 8.68 16 8 C16.66 8 17.32 8 18 8 C18 8.66 18 9.32 18 10 C18.66 10 19.32 10 20 10 C20 11.32 20 12.64 20 14 C19.34 14 18.68 14 18 14 C18 14.66 18 15.32 18 16 C16.37536158 16.05395478 14.75021459 16.09277195 13.125 16.125 C11.76761719 16.15980469 11.76761719 16.15980469 10.3828125 16.1953125 C8 16 8 16 6 14 C6 14.66 6 15.32 6 16 C4.02 16 2.04 16 0 16 C0 15.34 0 14.68 0 14 C-0.66 14 -1.32 14 -2 14 C-2 13.34 -2 12.68 -2 12 C-0.68 12 0.64 12 2 12 C2 11.34 2 10.68 2 10 C3.32 10 4.64 10 6 10 C6 9.34 6 8.68 6 8 C4.02 8 2.04 8 0 8 C0 8.66 0 9.32 0 10 C-1.32 10 -2.64 10 -4 10 C-4 10.66 -4 11.32 -4 12 C-4.66 12 -5.32 12 -6 12 C-6 10.68 -6 9.36 -6 8 C-5.34 8 -4.68 8 -4 8 C-4 7.34 -4 6.68 -4 6 C-2.68 6 -1.36 6 0 6 C0 4.02 0 2.04 0 0 Z " fill="#5D4C42" transform="translate(28,10)"/>
<path d="M0 0 C0.66 0 1.32 0 2 0 C2 0.66 2 1.32 2 2 C2.66 2 3.32 2 4 2 C4 2.66 4 3.32 4 4 C4.66 4 5.32 4 6 4 C6 4.66 6 5.32 6 6 C7.65 5.67 9.3 5.34 11 5 C12.10228696 9.40914783 12.07654536 13.48382401 12 18 C11.34 18 10.68 18 10 18 C10 18.66 10 19.32 10 20 C9.34 20 8.68 20 8 20 C8 20.66 8 21.32 8 22 C7.34 22 6.68 22 6 22 C6 20.68 6 19.36 6 18 C6.66 18 7.32 18 8 18 C8 17.34 8 16.68 8 16 C6.68 16 5.36 16 4 16 C4 14.02 4 12.04 4 10 C3.34 10 2.68 10 2 10 C2 8.68 2 7.36 2 6 C1.34 6 0.68 6 0 6 C0 4.02 0 2.04 0 0 Z " fill="#978C88" transform="translate(50,32)"/>
<path d="M0 0 C0.66 0 1.32 0 2 0 C2 1.32 2 2.64 2 4 C2.66 4 3.32 4 4 4 C4 3.34 4 2.68 4 2 C4.66 2 5.32 2 6 2 C6 1.34 6 0.68 6 0 C7.32 0 8.64 0 10 0 C10 0.66 10 1.32 10 2 C9.34 2 8.68 2 8 2 C8 3.98 8 5.96 8 8 C7.34 8 6.68 8 6 8 C6 7.34 6 6.68 6 6 C4.68 6 3.36 6 2 6 C2 6.66 2 7.32 2 8 C2.66 8 3.32 8 4 8 C4 9.32 4 10.64 4 12 C5.32 12 6.64 12 8 12 C8 12.66 8 13.32 8 14 C7.34 14 6.68 14 6 14 C6 14.66 6 15.32 6 16 C3.36 16 0.72 16 -2 16 C-2 14.02 -2 12.04 -2 10 C-1.34 10 -0.68 10 0 10 C0 8.68 0 7.36 0 6 C-1.32 6 -2.64 6 -4 6 C-4 4.68 -4 3.36 -4 2 C-2.68 2 -1.36 2 0 2 C0 1.34 0 0.68 0 0 Z " fill="#736F6A" transform="translate(12,32)"/>
<path d="M0 0 C1.32 0 2.64 0 4 0 C4 1.32 4 2.64 4 4 C4.66 4 5.32 4 6 4 C6 4.66 6 5.32 6 6 C5.34 6 4.68 6 4 6 C4 6.66 4 7.32 4 8 C4.66 8 5.32 8 6 8 C6 9.98 6 11.96 6 14 C3.36 14 0.72 14 -2 14 C-2 13.34 -2 12.68 -2 12 C-3.32 12 -4.64 12 -6 12 C-6 10.68 -6 9.36 -6 8 C-6.66 8 -7.32 8 -8 8 C-8 7.34 -8 6.68 -8 6 C-6.68 6 -5.36 6 -4 6 C-4 6.66 -4 7.32 -4 8 C-3.34 8 -2.68 8 -2 8 C-2 6.02 -2 4.04 -2 2 C-1.34 2 -0.68 2 0 2 C0 1.34 0 0.68 0 0 Z " fill="#A19F9C" transform="translate(22,32)"/>
<path d="M0 0 C2.64 0 5.28 0 8 0 C8 0.66 8 1.32 8 2 C6.68 2 5.36 2 4 2 C4 2.66 4 3.32 4 4 C2.68 4 1.36 4 0 4 C0 5.32 0 6.64 0 8 C1.32 8 2.64 8 4 8 C4 9.32 4 10.64 4 12 C3.34 12 2.68 12 2 12 C2 13.32 2 14.64 2 16 C0.68 16 -0.64 16 -2 16 C-2 15.34 -2 14.68 -2 14 C-2.66 14 -3.32 14 -4 14 C-4 13.34 -4 12.68 -4 12 C-4.66 12 -5.32 12 -6 12 C-6 9.36 -6 6.72 -6 4 C-5.34 4 -4.68 4 -4 4 C-4 3.34 -4 2.68 -4 2 C-2.68 2 -1.36 2 0 2 C0 1.34 0 0.68 0 0 Z " fill="#9A666A" transform="translate(8,30)"/>
<path d="M0 0 C3.3 0 6.6 0 10 0 C10 1.32 10 2.64 10 4 C10.66 4 11.32 4 12 4 C12 3.34 12 2.68 12 2 C13.32 2 14.64 2 16 2 C16 2.66 16 3.32 16 4 C16.66 4 17.32 4 18 4 C18 4.66 18 5.32 18 6 C17.34 6 16.68 6 16 6 C16 6.66 16 7.32 16 8 C14.02 8 12.04 8 10 8 C10 7.34 10 6.68 10 6 C8.68 6 7.36 6 6 6 C6 6.66 6 7.32 6 8 C6.66 8 7.32 8 8 8 C8 8.66 8 9.32 8 10 C6.68 10 5.36 10 4 10 C4 9.34 4 8.68 4 8 C3.34 8 2.68 8 2 8 C2 6.68 2 5.36 2 4 C0.68 4 -0.64 4 -2 4 C-2 3.34 -2 2.68 -2 2 C-1.34 2 -0.68 2 0 2 C0 1.34 0 0.68 0 0 Z " fill="#94908C" transform="translate(24,28)"/>
<path d="M0 0 C0.66 0 1.32 0 2 0 C2 5.28 2 10.56 2 16 C-1.96 16 -5.92 16 -10 16 C-10 15.34 -10 14.68 -10 14 C-9.34 14 -8.68 14 -8 14 C-8 13.34 -8 12.68 -8 12 C-7.34 12 -6.68 12 -6 12 C-6 11.34 -6 10.68 -6 10 C-5.34 10 -4.68 10 -4 10 C-4 8.02 -4 6.04 -4 4 C-3.34 4 -2.68 4 -2 4 C-2 3.34 -2 2.68 -2 2 C-1.34 2 -0.68 2 0 2 C0 1.34 0 0.68 0 0 Z " fill="#9B2534" transform="translate(62,48)"/>
<path d="M0 0 C0.66 0 1.32 0 2 0 C2 1.32 2 2.64 2 4 C1.34 4 0.68 4 0 4 C0 7.3 0 10.6 0 14 C0.66 14 1.32 14 2 14 C2 14.66 2 15.32 2 16 C0.68 16 -0.64 16 -2 16 C-2 15.34 -2 14.68 -2 14 C-2.66 14 -3.32 14 -4 14 C-4 15.32 -4 16.64 -4 18 C-5.32 18 -6.64 18 -8 18 C-8 17.34 -8 16.68 -8 16 C-7.34 16 -6.68 16 -6 16 C-6 15.34 -6 14.68 -6 14 C-6.66 14 -7.32 14 -8 14 C-8 12.02 -8 10.04 -8 8 C-7.34 8 -6.68 8 -6 8 C-6 7.34 -6 6.68 -6 6 C-5.34 6 -4.68 6 -4 6 C-4 5.34 -4 4.68 -4 4 C-3.34 4 -2.68 4 -2 4 C-2 3.34 -2 2.68 -2 2 C-1.34 2 -0.68 2 0 2 C0 1.34 0 0.68 0 0 Z " fill="#46342A" transform="translate(18,10)"/>
<path d="M0 0 C0.66 0 1.32 0 2 0 C2 1.98 2 3.96 2 6 C0.02 6.99 0.02 6.99 -2 8 C-2 9.32 -2 10.64 -2 12 C-1.34 12 -0.68 12 0 12 C0 13.32 0 14.64 0 16 C-0.66 16 -1.32 16 -2 16 C-2 16.66 -2 17.32 -2 18 C-3.32 18 -4.64 18 -6 18 C-6 16.68 -6 15.36 -6 14 C-8.64 14 -11.28 14 -14 14 C-14 13.34 -14 12.68 -14 12 C-14.66 12 -15.32 12 -16 12 C-16 11.34 -16 10.68 -16 10 C-14.68 10 -13.36 10 -12 10 C-12 10.66 -12 11.32 -12 12 C-10.02 12 -8.04 12 -6 12 C-6 11.34 -6 10.68 -6 10 C-5.34 10 -4.68 10 -4 10 C-4 8.68 -4 7.36 -4 6 C-3.34 6 -2.68 6 -2 6 C-2 4.68 -2 3.36 -2 2 C-1.34 2 -0.68 2 0 2 C0 1.34 0 0.68 0 0 Z " fill="#7A736F" transform="translate(46,24)"/>
<path d="M0 0 C2.64 0 5.28 0 8 0 C8 1.32 8 2.64 8 4 C7.34 4 6.68 4 6 4 C6 4.66 6 5.32 6 6 C-2.58 6 -11.16 6 -20 6 C-20 5.34 -20 4.68 -20 4 C-14.72 4 -9.44 4 -4 4 C-4 3.34 -4 2.68 -4 2 C-2.68 2 -1.36 2 0 2 C0 1.34 0 0.68 0 0 Z " fill="#ECEDED" transform="translate(44,52)"/>
<path d="M0 0 C1.32 0 2.64 0 4 0 C4 0.66 4 1.32 4 2 C3.34 2 2.68 2 2 2 C2 2.66 2 3.32 2 4 C1.34 4 0.68 4 0 4 C0 4.66 0 5.32 0 6 C-0.66 6 -1.32 6 -2 6 C-2 6.66 -2 7.32 -2 8 C-2.66 8 -3.32 8 -4 8 C-4 7.34 -4 6.68 -4 6 C-11.92 6 -19.84 6 -28 6 C-28 5.34 -28 4.68 -28 4 C-20.74 4 -13.48 4 -6 4 C-6 3.34 -6 2.68 -6 2 C-4.02 2 -2.04 2 0 2 C0 1.34 0 0.68 0 0 Z " fill="#4B0E13" transform="translate(54,56)"/>
<path d="M0 0 C0.66 0 1.32 0 2 0 C2 0.66 2 1.32 2 2 C3.32 2 4.64 2 6 2 C6 2.66 6 3.32 6 4 C7.98 4 9.96 4 12 4 C12 4.66 12 5.32 12 6 C12.66 6 13.32 6 14 6 C14 5.34 14 4.68 14 4 C15.98 4 17.96 4 20 4 C20 4.66 20 5.32 20 6 C19.34 6 18.68 6 18 6 C18 6.66 18 7.32 18 8 C14.04 8 10.08 8 6 8 C6 7.34 6 6.68 6 6 C4.02 6 2.04 6 0 6 C0 4.02 0 2.04 0 0 Z " fill="#625E5C" transform="translate(20,46)"/>
<path d="M0 0 C0.66 0 1.32 0 2 0 C2 4.62 2 9.24 2 14 C0.02 14 -1.96 14 -4 14 C-4 10.04 -4 6.08 -4 2 C-2.68 2 -1.36 2 0 2 C0 1.34 0 0.68 0 0 Z " fill="#363A2A" transform="translate(52,16)"/>
<path d="M0 0 C1.98 0 3.96 0 6 0 C6 0.66 6 1.32 6 2 C7.32 2 8.64 2 10 2 C10 2.66 10 3.32 10 4 C10.66 4 11.32 4 12 4 C12 4.66 12 5.32 12 6 C12.66 6 13.32 6 14 6 C14 6.66 14 7.32 14 8 C14.66 8 15.32 8 16 8 C16 11.3 16 14.6 16 18 C15.34 18 14.68 18 14 18 C13.34 14.7 12.68 11.4 12 8 C10.68 8 9.36 8 8 8 C8 7.34 8 6.68 8 6 C7.34 6 6.68 6 6 6 C6 5.34 6 4.68 6 4 C5.34 4 4.68 4 4 4 C4 3.34 4 2.68 4 2 C3.34 2 2.68 2 2 2 C2 2.66 2 3.32 2 4 C1.34 4 0.68 4 0 4 C0 2.68 0 1.36 0 0 Z " fill="#A86E71" transform="translate(48,30)"/>
<path d="M0 0 C0.99 0 1.98 0 3 0 C3.33 0.66 3.66 1.32 4 2 C4.99 2.33 5.98 2.66 7 3 C7 4.65 7 6.3 7 8 C6.01 8.33 5.02 8.66 4 9 C4 10.32 4 11.64 4 13 C3.34 13 2.68 13 2 13 C2 13.66 2 14.32 2 15 C1.34 15 0.68 15 0 15 C0 10.05 0 5.1 0 0 Z " fill="#CE3343" transform="translate(0,21)"/>
<path d="M0 0 C3.96 0 7.92 0 12 0 C12 0.66 12 1.32 12 2 C12.66 2 13.32 2 14 2 C14 2.66 14 3.32 14 4 C13.34 4 12.68 4 12 4 C12 5.32 12 6.64 12 8 C11.34 8 10.68 8 10 8 C10 7.34 10 6.68 10 6 C8.68 6 7.36 6 6 6 C6 5.34 6 4.68 6 4 C4.02 4 2.04 4 0 4 C0 2.68 0 1.36 0 0 Z " fill="#291810" transform="translate(30,4)"/>
<path d="M0 0 C1.98 0 3.96 0 6 0 C6 3.3 6 6.6 6 10 C5.34 10 4.68 10 4 10 C4 10.66 4 11.32 4 12 C2.68 12 1.36 12 0 12 C0 8.04 0 4.08 0 0 Z " fill="#C88EB8" transform="translate(0,0)"/>
<path d="M0 0 C0.66 0 1.32 0 2 0 C2 0.66 2 1.32 2 2 C2.66 2 3.32 2 4 2 C4 2.66 4 3.32 4 4 C1.36 4 -1.28 4 -4 4 C-4 5.32 -4 6.64 -4 8 C-3.34 8 -2.68 8 -2 8 C-2 8.66 -2 9.32 -2 10 C-3.98 10 -5.96 10 -8 10 C-8 10.66 -8 11.32 -8 12 C-8.66 12 -9.32 12 -10 12 C-9.47731534 9.23723823 -8.89130413 6.6739124 -8 4 C-7.34 4 -6.68 4 -6 4 C-6 3.34 -6 2.68 -6 2 C-4.02 2 -2.04 2 0 2 C0 1.34 0 0.68 0 0 Z " fill="#2D1F14" transform="translate(34,0)"/>
<path d="M0 0 C0.66 0 1.32 0 2 0 C2 1.32 2 2.64 2 4 C9.26 4 16.52 4 24 4 C24 4.66 24 5.32 24 6 C18.72 6 13.44 6 8 6 C8 6.66 8 7.32 8 8 C7.34 8 6.68 8 6 8 C6 7.34 6 6.68 6 6 C4.02 6 2.04 6 0 6 C0 4.02 0 2.04 0 0 Z " fill="#8F8E8C" transform="translate(16,50)"/>
<path d="M0 0 C0.66 0 1.32 0 2 0 C2 1.98 2 3.96 2 6 C2.66 6 3.32 6 4 6 C4 7.98 4 9.96 4 12 C4.66 12 5.32 12 6 12 C6 12.66 6 13.32 6 14 C6.66 14 7.32 14 8 14 C8 14.66 8 15.32 8 16 C9.32 16 10.64 16 12 16 C12 16.66 12 17.32 12 18 C10.02 18 8.04 18 6 18 C6 17.34 6 16.68 6 16 C5.34 16 4.68 16 4 16 C4 15.34 4 14.68 4 14 C3.34 14 2.68 14 2 14 C2 12.68 2 11.36 2 10 C1.34 10 0.68 10 0 10 C0 6.7 0 3.4 0 0 Z " fill="#5E4745" transform="translate(0,36)"/>
<path d="M0 0 C0.66 0 1.32 0 2 0 C2 1.32 2 2.64 2 4 C2.66 4 3.32 4 4 4 C4 3.34 4 2.68 4 2 C4.66 2 5.32 2 6 2 C6 1.34 6 0.68 6 0 C7.32 0 8.64 0 10 0 C10 0.66 10 1.32 10 2 C9.34 2 8.68 2 8 2 C8 3.98 8 5.96 8 8 C7.34 8 6.68 8 6 8 C6 7.34 6 6.68 6 6 C2.7 6 -0.6 6 -4 6 C-4 4.68 -4 3.36 -4 2 C-2.68 2 -1.36 2 0 2 C0 1.34 0 0.68 0 0 Z " fill="#7C736F" transform="translate(12,32)"/>
<path d="M0 0 C2.64 0 5.28 0 8 0 C8 1.32 8 2.64 8 4 C7.34 4 6.68 4 6 4 C6 5.32 6 6.64 6 8 C4.68 8 3.36 8 2 8 C2 7.34 2 6.68 2 6 C1.34 6 0.68 6 0 6 C0 4.02 0 2.04 0 0 Z " fill="#DBDBDC" transform="translate(4,38)"/>
<path d="M0 0 C0.66 0 1.32 0 2 0 C2 0.66 2 1.32 2 2 C3.32 2 4.64 2 6 2 C6 2.66 6 3.32 6 4 C7.98 4 9.96 4 12 4 C12 5.32 12 6.64 12 8 C10.02 8 8.04 8 6 8 C6 7.34 6 6.68 6 6 C4.68 6 3.36 6 2 6 C2 5.34 2 4.68 2 4 C1.34 4 0.68 4 0 4 C0 2.68 0 1.36 0 0 Z " fill="#2A0F10" transform="translate(8,54)"/>
<path d="M0 0 C2.475 0.99 2.475 0.99 5 2 C5.88021369 8.71162938 6.11381955 15.23405981 6 22 C5.34 22 4.68 22 4 22 C4 16.72 4 11.44 4 6 C3.34 6 2.68 6 2 6 C2 5.34 2 4.68 2 4 C1.34 4 0.68 4 0 4 C0 2.68 0 1.36 0 0 Z " fill="#BD3F54" transform="translate(50,10)"/>
<path d="M0 0 C4.62 0 9.24 0 14 0 C14 0.66 14 1.32 14 2 C11.36 2 8.72 2 6 2 C6 3.32 6 4.64 6 6 C4.68 6 3.36 6 2 6 C2 4.68 2 3.36 2 2 C1.34 2 0.68 2 0 2 C0 1.34 0 0.68 0 0 Z " fill="#807D79" transform="translate(26,38)"/>
<path d="M0 0 C1.32 0 2.64 0 4 0 C4 0.66 4 1.32 4 2 C5.32 2 6.64 2 8 2 C8 2.66 8 3.32 8 4 C7.34 4 6.68 4 6 4 C6 4.66 6 5.32 6 6 C3.36 6 0.72 6 -2 6 C-2 4.68 -2 3.36 -2 2 C-1.34 2 -0.68 2 0 2 C0 1.34 0 0.68 0 0 Z " fill="#513430" transform="translate(32,8)"/>
<path d="M0 0 C0.66 0 1.32 0 2 0 C2 5.61 2 11.22 2 17 C1.34 17 0.68 17 0 17 C0 16.34 0 15.68 0 15 C-0.66 15 -1.32 15 -2 15 C-1.34 10.05 -0.68 5.1 0 0 Z " fill="#B6283E" transform="translate(62,21)"/>
<path d="M0 0 C1.32 0 2.64 0 4 0 C4 0.66 4 1.32 4 2 C3.34 2 2.68 2 2 2 C2 2.66 2 3.32 2 4 C1.34 4 0.68 4 0 4 C0 4.66 0 5.32 0 6 C-0.66 6 -1.32 6 -2 6 C-2 6.66 -2 7.32 -2 8 C-2.66 8 -3.32 8 -4 8 C-4 7.34 -4 6.68 -4 6 C-4.66 6 -5.32 6 -6 6 C-6 4.68 -6 3.36 -6 2 C-4.02 2 -2.04 2 0 2 C0 1.34 0 0.68 0 0 Z " fill="#621319" transform="translate(54,56)"/>
<path d="M0 0 C0.66 0 1.32 0 2 0 C2 0.66 2 1.32 2 2 C3.32 2 4.64 2 6 2 C6 2.66 6 3.32 6 4 C7.32 4 8.64 4 10 4 C10 4.66 10 5.32 10 6 C9.34 6 8.68 6 8 6 C8 6.66 8 7.32 8 8 C6.68 8 5.36 8 4 8 C4 7.34 4 6.68 4 6 C3.34 6 2.68 6 2 6 C2 5.34 2 4.68 2 4 C1.34 4 0.68 4 0 4 C0 2.68 0 1.36 0 0 Z " fill="#462F2F" transform="translate(4,44)"/>
<path d="M0 0 C0.66 0 1.32 0 2 0 C2 0.66 2 1.32 2 2 C3.32 2 4.64 2 6 2 C6 4.64 6 7.28 6 10 C4.68 10 3.36 10 2 10 C2 8.02 2 6.04 2 4 C1.34 4 0.68 4 0 4 C0 2.68 0 1.36 0 0 Z " fill="#DCDBDA" transform="translate(52,38)"/>
<path d="M0 0 C3.3 0 6.6 0 10 0 C10 1.32 10 2.64 10 4 C8.02 4 6.04 4 4 4 C4 3.34 4 2.68 4 2 C3.34 2 2.68 2 2 2 C2 2.66 2 3.32 2 4 C0.68 4 -0.64 4 -2 4 C-2 3.34 -2 2.68 -2 2 C-1.34 2 -0.68 2 0 2 C0 1.34 0 0.68 0 0 Z " fill="#7F7670" transform="translate(24,28)"/>
<path d="M0 0 C4.455 0.99 4.455 0.99 9 2 C9.33 3.32 9.66 4.64 10 6 C10.99 6.33 11.98 6.66 13 7 C11.35 7.33 9.7 7.66 8 8 C8 7.34 8 6.68 8 6 C7.34 6 6.68 6 6 6 C6 5.34 6 4.68 6 4 C4.68 4 3.36 4 2 4 C2 3.34 2 2.68 2 2 C1.34 2 0.68 2 0 2 C0 1.34 0 0.68 0 0 Z " fill="#B14154" transform="translate(36,0)"/>
<path d="M0 0 C2.64 0 5.28 0 8 0 C8 1.32 8 2.64 8 4 C7.34 4 6.68 4 6 4 C6 4.66 6 5.32 6 6 C4.02 6 2.04 6 0 6 C0 5.34 0 4.68 0 4 C1.32 4 2.64 4 4 4 C4 3.34 4 2.68 4 2 C2.68 2 1.36 2 0 2 C0 1.34 0 0.68 0 0 Z " fill="#B2B1AE" transform="translate(44,52)"/>
<path d="M0 0 C0.66 0 1.32 0 2 0 C2 1.98 2 3.96 2 6 C3.98 6 5.96 6 8 6 C8 6.66 8 7.32 8 8 C5.36 8 2.72 8 0 8 C0 6.68 0 5.36 0 4 C-1.32 4 -2.64 4 -4 4 C-4 3.34 -4 2.68 -4 2 C-2.68 2 -1.36 2 0 2 C0 1.34 0 0.68 0 0 Z " fill="#504B47" transform="translate(18,46)"/>
<path d="M0 0 C1.32 0 2.64 0 4 0 C4 1.98 4 3.96 4 6 C3.34 6 2.68 6 2 6 C2 6.66 2 7.32 2 8 C1.34 8 0.68 8 0 8 C0 8.66 0 9.32 0 10 C-0.66 10 -1.32 10 -2 10 C-2 8.68 -2 7.36 -2 6 C-1.34 6 -0.68 6 0 6 C0 4.02 0 2.04 0 0 Z " fill="#AFA3A0" transform="translate(58,44)"/>
<path d="M0 0 C0.66 0 1.32 0 2 0 C2 1.98 2 3.96 2 6 C0.68 6 -0.64 6 -2 6 C-2 6.66 -2 7.32 -2 8 C-2.66 8 -3.32 8 -4 8 C-4 8.66 -4 9.32 -4 10 C-4.66 10 -5.32 10 -6 10 C-6 8.68 -6 7.36 -6 6 C-5.34 6 -4.68 6 -4 6 C-4 5.34 -4 4.68 -4 4 C-3.34 4 -2.68 4 -2 4 C-2 3.34 -2 2.68 -2 2 C-1.34 2 -0.68 2 0 2 C0 1.34 0 0.68 0 0 Z " fill="#473227" transform="translate(26,10)"/>
<path d="M0 0 C0 1.98 0 3.96 0 6 C-2.31 6 -4.62 6 -7 6 C-6.6875 4.125 -6.6875 4.125 -6 2 C-3 0 -3 0 0 0 Z " fill="#99202D" transform="translate(64,58)"/>
<path d="M0 0 C0.66 0 1.32 0 2 0 C2 1.98 2 3.96 2 6 C1.34 6 0.68 6 0 6 C0 5.34 0 4.68 0 4 C-0.66 4 -1.32 4 -2 4 C-2 4.66 -2 5.32 -2 6 C-3.32 6 -4.64 6 -6 6 C-6 4.68 -6 3.36 -6 2 C-4.02 2 -2.04 2 0 2 C0 1.34 0 0.68 0 0 Z " fill="#858783" transform="translate(52,42)"/>
<path d="M0 0 C0.66 0 1.32 0 2 0 C2 0.66 2 1.32 2 2 C2.66 2 3.32 2 4 2 C4 2.66 4 3.32 4 4 C5.98 4 7.96 4 10 4 C10 4.66 10 5.32 10 6 C8.68 6 7.36 6 6 6 C6 6.66 6 7.32 6 8 C5.34 8 4.68 8 4 8 C4 7.34 4 6.68 4 6 C3.34 6 2.68 6 2 6 C2 5.34 2 4.68 2 4 C1.34 4 0.68 4 0 4 C0 2.68 0 1.36 0 0 Z " fill="#262619" transform="translate(42,12)"/>
<path d="M0 0 C2.64 0 5.28 0 8 0 C8 0.66 8 1.32 8 2 C6.02 2 4.04 2 2 2 C2 2.66 2 3.32 2 4 C0.68 4 -0.64 4 -2 4 C-2 4.66 -2 5.32 -2 6 C-2.66 6 -3.32 6 -4 6 C-3.67 4.68 -3.34 3.36 -3 2 C-2.01 2 -1.02 2 0 2 C0 1.34 0 0.68 0 0 Z " fill="#BA3B51" transform="translate(26,0)"/>
<path d="M0 0 C1.32 0 2.64 0 4 0 C4 0.66 4 1.32 4 2 C4.66 2 5.32 2 6 2 C6 2.66 6 3.32 6 4 C4.68 4 3.36 4 2 4 C2 4.66 2 5.32 2 6 C0.68 6 -0.64 6 -2 6 C-2 5.34 -2 4.68 -2 4 C-1.34 4 -0.68 4 0 4 C0 2.68 0 1.36 0 0 Z " fill="#856664" transform="translate(52,52)"/>
<path d="M0 0 C0.66 0 1.32 0 2 0 C2 0.66 2 1.32 2 2 C2.66 2 3.32 2 4 2 C4 3.98 4 5.96 4 8 C2.68 8 1.36 8 0 8 C0 5.36 0 2.72 0 0 Z " fill="#5B5A54" transform="translate(12,38)"/>
<path d="M0 0 C1.98 0 3.96 0 6 0 C6 0.66 6 1.32 6 2 C7.32 2 8.64 2 10 2 C10 2.66 10 3.32 10 4 C8.02 4 6.04 4 4 4 C4 3.34 4 2.68 4 2 C3.34 2 2.68 2 2 2 C2 2.66 2 3.32 2 4 C1.34 4 0.68 4 0 4 C0 2.68 0 1.36 0 0 Z " fill="#986769" transform="translate(48,30)"/>
<path d="M0 0 C0.66 0 1.32 0 2 0 C2 1.98 2 3.96 2 6 C1.34 6 0.68 6 0 6 C0 6.66 0 7.32 0 8 C-1.32 8 -2.64 8 -4 8 C-4 7.34 -4 6.68 -4 6 C-3.34 6 -2.68 6 -2 6 C-2 4.68 -2 3.36 -2 2 C-1.34 2 -0.68 2 0 2 C0 1.34 0 0.68 0 0 Z " fill="#DBA2C3" transform="translate(4,4)"/>
<path d="M0 0 C1.32 0 2.64 0 4 0 C4 0.66 4 1.32 4 2 C4.66 2 5.32 2 6 2 C6 3.32 6 4.64 6 6 C6.66 6 7.32 6 8 6 C8 6.66 8 7.32 8 8 C6.68 7.67 5.36 7.34 4 7 C4 6.01 4 5.02 4 4 C2.68 3.34 1.36 2.68 0 2 C0 1.34 0 0.68 0 0 Z " fill="#190102" transform="translate(2,52)"/>
<path d="M0 0 C0.66 0 1.32 0 2 0 C2 1.98 2 3.96 2 6 C0.02 6.99 0.02 6.99 -2 8 C-2 6.02 -2 4.04 -2 2 C-1.34 2 -0.68 2 0 2 C0 1.34 0 0.68 0 0 Z " fill="#766761" transform="translate(46,24)"/>
<path d="M0 0 C2.64 0 5.28 0 8 0 C8 0.66 8 1.32 8 2 C8.66 2 9.32 2 10 2 C10 2.66 10 3.32 10 4 C8.68 4 7.36 4 6 4 C6 3.34 6 2.68 6 2 C4.02 2 2.04 2 0 2 C0 1.34 0 0.68 0 0 Z " fill="#5A4646" transform="translate(14,56)"/>
<path d="M0 0 C0.66 0 1.32 0 2 0 C2 1.98 2 3.96 2 6 C2.66 6 3.32 6 4 6 C4 6.66 4 7.32 4 8 C3.34 8 2.68 8 2 8 C2 8.66 2 9.32 2 10 C1.34 10 0.68 10 0 10 C0 6.7 0 3.4 0 0 Z " fill="#70202B" transform="translate(0,36)"/>
<path d="M0 0 C2.64 0 5.28 0 8 0 C8 1.32 8 2.64 8 4 C6.68 4 5.36 4 4 4 C4 3.34 4 2.68 4 2 C2.68 2 1.36 2 0 2 C0 1.34 0 0.68 0 0 Z " fill="#645C56" transform="translate(44,40)"/>
<path d="M0 0 C1.32 0 2.64 0 4 0 C4 0.66 4 1.32 4 2 C5.98 2 7.96 2 10 2 C10 2.66 10 3.32 10 4 C7.36 4 4.72 4 2 4 C2 3.34 2 2.68 2 2 C1.34 2 0.68 2 0 2 C0 1.34 0 0.68 0 0 Z " fill="#716C68" transform="translate(30,34)"/>
<path d="M0 0 C0.99 0 1.98 0 3 0 C3 2.64 3 5.28 3 8 C1.68 8 0.36 8 -1 8 C-1 7.34 -1 6.68 -1 6 C-0.34 6 0.32 6 1 6 C0.67 4.02 0.34 2.04 0 0 Z " fill="#37402E" transform="translate(11,20)"/>
<path d="M0 0 C1.32 0 2.64 0 4 0 C4 1.32 4 2.64 4 4 C2.68 4 1.36 4 0 4 C0 4.66 0 5.32 0 6 C-0.66 6 -1.32 6 -2 6 C-2 4.68 -2 3.36 -2 2 C-1.34 2 -0.68 2 0 2 C0 1.34 0 0.68 0 0 Z " fill="#5A3E3B" transform="translate(24,16)"/>
<path d="M0 0 C2.64 0 5.28 0 8 0 C8 0.66 8 1.32 8 2 C8.66 2 9.32 2 10 2 C10 2.66 10 3.32 10 4 C8.68 4 7.36 4 6 4 C6 3.34 6 2.68 6 2 C4.02 2 2.04 2 0 2 C0 1.34 0 0.68 0 0 Z " fill="#110C02" transform="translate(30,6)"/>
<path d="M0 0 C0.66 0 1.32 0 2 0 C2 0.66 2 1.32 2 2 C2.66 2 3.32 2 4 2 C4 2.66 4 3.32 4 4 C0.7 4 -2.6 4 -6 4 C-6 3.34 -6 2.68 -6 2 C-4.02 2 -2.04 2 0 2 C0 1.34 0 0.68 0 0 Z " fill="#4C2A25" transform="translate(34,0)"/>
<path d="M0 0 C0.66 0 1.32 0 2 0 C1 4 1 4 0 8 C-0.66 8 -1.32 8 -2 8 C-2 7.34 -2 6.68 -2 6 C-2.66 6 -3.32 6 -4 6 C-4 5.34 -4 4.68 -4 4 C-3.34 4 -2.68 4 -2 4 C-2 3.34 -2 2.68 -2 2 C-1.34 2 -0.68 2 0 2 C0 1.34 0 0.68 0 0 Z " fill="#4E2B26" transform="translate(24,4)"/>
<path d="M0 0 C2.64 0 5.28 0 8 0 C8 1.32 8 2.64 8 4 C7.34 4 6.68 4 6 4 C6 3.34 6 2.68 6 2 C4.68 2 3.36 2 2 2 C2 2.66 2 3.32 2 4 C1.34 4 0.68 4 0 4 C0 2.68 0 1.36 0 0 Z " fill="#6C655E" transform="translate(34,28)"/>
<path d="M0 0 C0.66 0 1.32 0 2 0 C2 0.66 2 1.32 2 2 C2.66 2 3.32 2 4 2 C4 2.66 4 3.32 4 4 C3.34 4 2.68 4 2 4 C1.34 5.65 0.68 7.3 0 9 C-1.15941038 5.52176885 -0.70820884 3.54104422 0 0 Z " fill="#CA374F" transform="translate(56,22)"/>
<path d="M0 0 C0.33 0.66 0.66 1.32 1 2 C1.66 2 2.32 2 3 2 C3 2.66 3 3.32 3 4 C2.34 4 1.68 4 1 4 C1 4.66 1 5.32 1 6 C1.66 6 2.32 6 3 6 C3 6.66 3 7.32 3 8 C1.68 8 0.36 8 -1 8 C-1.125 2.25 -1.125 2.25 0 0 Z " fill="#5E4A42" transform="translate(9,22)"/>
<path d="M0 0 C0 0.66 0 1.32 0 2 C-1.32 2 -2.64 2 -4 2 C-4 3.32 -4 4.64 -4 6 C-4.66 6 -5.32 6 -6 6 C-6 4.02 -6 2.04 -6 0 C-3 -1 -3 -1 0 0 Z " fill="#A38E8D" transform="translate(8,36)"/>
<path d="M0 0 C0.33 2.31 0.66 4.62 1 7 C-0.32 7 -1.64 7 -3 7 C-3 5.02 -3 3.04 -3 1 C-1 0 -1 0 0 0 Z " fill="#918683" transform="translate(61,37)"/>
<path d="M0 0 C2.64 0 5.28 0 8 0 C8 0.66 8 1.32 8 2 C6.68 2 5.36 2 4 2 C4 2.66 4 3.32 4 4 C3.34 4 2.68 4 2 4 C2 3.34 2 2.68 2 2 C1.34 2 0.68 2 0 2 C0 1.34 0 0.68 0 0 Z " fill="#DDDEDA" transform="translate(40,54)"/>
<path d="M0 0 C0.66 0 1.32 0 2 0 C2 0.66 2 1.32 2 2 C2.66 2 3.32 2 4 2 C4 3.32 4 4.64 4 6 C2.68 6 1.36 6 0 6 C0 4.02 0 2.04 0 0 Z " fill="#5D5754" transform="translate(20,46)"/>
<path d="M0 0 C1.98 0 3.96 0 6 0 C6 0.66 6 1.32 6 2 C6.66 2 7.32 2 8 2 C8 2.66 8 3.32 8 4 C6.68 4 5.36 4 4 4 C4 3.34 4 2.68 4 2 C2.68 2 1.36 2 0 2 C0 1.34 0 0.68 0 0 Z " fill="#83807F" transform="translate(22,46)"/>
<path d="M0 0 C1.32 0 2.64 0 4 0 C4 0.66 4 1.32 4 2 C3.34 2 2.68 2 2 2 C2 3.32 2 4.64 2 6 C0.68 6 -0.64 6 -2 6 C-2 5.34 -2 4.68 -2 4 C-1.34 4 -0.68 4 0 4 C0 2.68 0 1.36 0 0 Z " fill="#C2C8C8" transform="translate(8,40)"/>
<path d="M0 0 C0.66 0 1.32 0 2 0 C2 0.66 2 1.32 2 2 C3.32 2 4.64 2 6 2 C6 3.32 6 4.64 6 6 C5.34 6 4.68 6 4 6 C4 5.34 4 4.68 4 4 C2.68 4 1.36 4 0 4 C0 2.68 0 1.36 0 0 Z " fill="#BDC1BB" transform="translate(52,38)"/>
<path d="M0 0 C1.32 0 2.64 0 4 0 C4 0.66 4 1.32 4 2 C3.34 2 2.68 2 2 2 C2 2.66 2 3.32 2 4 C1.34 4 0.68 4 0 4 C0 4.66 0 5.32 0 6 C-0.66 6 -1.32 6 -2 6 C-2 4.68 -2 3.36 -2 2 C-1.34 2 -0.68 2 0 2 C0 1.34 0 0.68 0 0 Z " fill="#645550" transform="translate(16,30)"/>
<path d="M0 0 C0.66 0 1.32 0 2 0 C2 0.66 2 1.32 2 2 C2.66 2 3.32 2 4 2 C4 2.66 4 3.32 4 4 C4.66 4 5.32 4 6 4 C6 4.66 6 5.32 6 6 C4.68 6 3.36 6 2 6 C2 5.34 2 4.68 2 4 C1.34 4 0.68 4 0 4 C0 2.68 0 1.36 0 0 Z " fill="#342D1C" transform="translate(14,20)"/>
<path d="M0 0 C1.32 0 2.64 0 4 0 C4 0.66 4 1.32 4 2 C4.66 2 5.32 2 6 2 C6 2.66 6 3.32 6 4 C4.02 4 2.04 4 0 4 C0 2.68 0 1.36 0 0 Z " fill="#4D362B" transform="translate(46,12)"/>
<path d="M0 0 C1.98 0 3.96 0 6 0 C6 1.32 6 2.64 6 4 C4.68 4 3.36 4 2 4 C2 3.34 2 2.68 2 2 C1.34 2 0.68 2 0 2 C0 1.34 0 0.68 0 0 Z " fill="#C27BA1" transform="translate(0,0)"/>
<path d="M0 0 C2.66666667 0.66666667 5.33333333 1.33333333 8 2 C8 2.66 8 3.32 8 4 C6.02 4 4.04 4 2 4 C2 3.34 2 2.68 2 2 C1.34 2 0.68 2 0 2 C0 1.34 0 0.68 0 0 Z " fill="#4D413C" transform="translate(26,22)"/>
<path d="M0 0 C0.66 0 1.32 0 2 0 C1.34 1.98 0.68 3.96 0 6 C-1.32 6 -2.64 6 -4 6 C-4 5.34 -4 4.68 -4 4 C-3.34 4 -2.68 4 -2 4 C-2 3.34 -2 2.68 -2 2 C-1.34 2 -0.68 2 0 2 C0 1.34 0 0.68 0 0 Z " fill="#944246" transform="translate(62,48)"/>
<path d="M0 0 C0.66 0 1.32 0 2 0 C2 0.66 2 1.32 2 2 C2.99 2 3.98 2 5 2 C5.33 1.34 5.66 0.68 6 0 C6 1.32 6 2.64 6 4 C4.02 4 2.04 4 0 4 C0 2.68 0 1.36 0 0 Z " fill="#524C40" transform="translate(48,26)"/>
<path d="M0 0 C0.66 0 1.32 0 2 0 C2 1.32 2 2.64 2 4 C-1.75 5.125 -1.75 5.125 -4 4 C-4 3.34 -4 2.68 -4 2 C-2.68 2 -1.36 2 0 2 C0 1.34 0 0.68 0 0 Z " fill="#613C3A" transform="translate(52,16)"/>
<path d="M0 0 C1.32 0 2.64 0 4 0 C4 0.66 4 1.32 4 2 C3.34 2 2.68 2 2 2 C2 2.66 2 3.32 2 4 C1.34 4 0.68 4 0 4 C-0.33 5.32 -0.66 6.64 -1 8 C-1.125 2.25 -1.125 2.25 0 0 Z " fill="#BA3D50" transform="translate(10,14)"/>
<path d="M0 0 C0 0.66 0 1.32 0 2 C-0.66 2 -1.32 2 -2 2 C-2 2.66 -2 3.32 -2 4 C-3.32 4 -4.64 4 -6 4 C-6 3.01 -6 2.02 -6 1 C-4 0 -4 0 0 0 Z " fill="#C03E56" transform="translate(22,6)"/>
</svg>
