<?xml version="1.0" encoding="UTF-8"?>
<svg version="1.1" xmlns="http://www.w3.org/2000/svg" width="80" height="80">
<path d="M0 0 C26.4 0 52.8 0 80 0 C80 26.4 80 52.8 80 80 C53.6 80 27.2 80 0 80 C0 53.6 0 27.2 0 0 Z " fill="#3A2D2B" transform="translate(0,0)"/>
<path d="M0 0 C26.4 0 52.8 0 80 0 C80 26.4 80 52.8 80 80 C53.6 80 27.2 80 0 80 C0 53.6 0 27.2 0 0 Z M17.875 8.5625 C15 11 15 11 12 12 C11.71125 12.763125 11.4225 13.52625 11.125 14.3125 C10 17 10 17 7.515625 18.63671875 C3.97386078 21.96399724 3.96835087 24.80397172 3.625 29.5 C3.55394043 30.30373047 3.48288086 31.10746094 3.40966797 31.93554688 C2.53310085 43.13587758 2.73902852 54.50115287 10.125 63.625 C11.88127926 65.19712122 11.88127926 65.19712122 14 65 C14 65.99 14 66.98 14 68 C17.03655958 71.05076843 17.03655958 71.05076843 21 72 C21 72.99 21 73.98 21 75 C33.92019065 79.47314174 41.32831341 80.30552859 54 75 C54 73.35 54 71.7 54 70 C49.545 70.495 49.545 70.495 45 71 C45 70.34 45 69.68 45 69 C46.65 69 48.3 69 50 69 C50 67.35 50 65.7 50 64 C50.66 64 51.32 64 52 64 C52.33 64.99 52.66 65.98 53 67 C53.495 65.515 53.495 65.515 54 64 C53.67 63.34 53.34 62.68 53 62 C54.65 62.66 56.3 63.32 58 64 C58 63.34 58 62.68 58 62 C58.66 62 59.32 62 60 62 C59.34 60.35 58.68 58.7 58 57 C57.34 57 56.68 57 56 57 C55.34 56.01 54.68 55.02 54 54 C53.34 54 52.68 54 52 54 C52 54.66 52 55.32 52 56 C49.03 56.495 49.03 56.495 46 57 C46 56.01 46 55.02 46 54 C48.475 53.505 48.475 53.505 51 53 C51.103125 52.360625 51.20625 51.72125 51.3125 51.0625 C51.539375 50.381875 51.76625 49.70125 52 49 C52.99 48.67 53.98 48.34 55 48 C54.67 49.65 54.34 51.3 54 53 C57.5051418 52.35089967 60.15174779 51.15543411 63 49 C63.88658466 46.40877257 63.88658466 46.40877257 64 44 C63.01 44 62.02 44 61 44 C61 43.34 61 42.68 61 42 C63.475 41.505 63.475 41.505 66 41 C66 40.34 66 39.68 66 39 C64.35 38.67 62.7 38.34 61 38 C61 37.34 61 36.68 61 36 C61.66 36 62.32 36 63 36 C63.84454356 32.62182575 64.10844919 30.32534757 63 27 C62.34 27 61.68 27 61 27 C61 26.01 61 25.02 61 24 C60.34 23.67 59.68 23.34 59 23 C58.87625 22.37351562 58.7525 21.74703125 58.625 21.1015625 C57.78097445 18.26352657 56.54747589 17.78520987 54 16.375 C50.09181141 14.18362283 50.09181141 14.18362283 49 12 C50.32 12 51.64 12 53 12 C53.495 13.485 53.495 13.485 54 15 C54.99 15 55.98 15 57 15 C57 15.66 57 16.32 57 17 C60.58327753 18.00217064 60.58327753 18.00217064 64 17 C64.08636719 17.69867188 64.17273438 18.39734375 64.26171875 19.1171875 C64.68204824 21.83968863 65.13743453 24.38196209 66 27 C68.45748398 28.75568004 68.45748398 28.75568004 71 29 C71.61884342 23.00907121 71.61884342 23.00907121 68.625 18 C66.28487188 15.79798559 66.28487188 15.79798559 64 16 C64 14.68 64 13.36 64 12 C62.68 12 61.36 12 60 12 C60 11.34 60 10.68 60 10 C55.18662538 6.49936391 50.90296373 4.00889589 45.0625 2.875 C44.22847656 2.70742188 43.39445312 2.53984375 42.53515625 2.3671875 C34.06721303 1.14070574 24.46562874 2.95482567 17.875 8.5625 Z " fill="#281F27" transform="translate(0,0)"/>
<path d="M0 0 C2.18765616 0.36785434 2.18765616 0.36785434 5.3359375 0.48828125 C10.4677045 1.63850489 14.77612398 4.12638548 18.9609375 7.30078125 C18.9609375 7.96078125 18.9609375 8.62078125 18.9609375 9.30078125 C20.2809375 9.30078125 21.6009375 9.30078125 22.9609375 9.30078125 C22.9609375 10.62078125 22.9609375 11.94078125 22.9609375 13.30078125 C23.6209375 13.30078125 24.2809375 13.30078125 24.9609375 13.30078125 C29.75412 16.95272982 29.75412 16.95272982 30.28515625 20.4140625 C30.27468457 22.37924806 30.12688617 24.34258693 29.9609375 26.30078125 C27.4859375 25.31078125 27.4859375 25.31078125 24.9609375 24.30078125 C24.8165625 23.20765625 24.6721875 22.11453125 24.5234375 20.98828125 C24.07805646 17.36955138 24.07805646 17.36955138 22.9609375 14.30078125 C22.1771875 14.48640625 21.3934375 14.67203125 20.5859375 14.86328125 C17.9609375 15.30078125 17.9609375 15.30078125 15.9609375 14.30078125 C15.9609375 13.64078125 15.9609375 12.98078125 15.9609375 12.30078125 C14.6409375 11.97078125 13.3209375 11.64078125 11.9609375 11.30078125 C11.9609375 10.64078125 11.9609375 9.98078125 11.9609375 9.30078125 C10.6409375 9.30078125 9.3209375 9.30078125 7.9609375 9.30078125 C11.21157811 12.82601229 11.21157811 12.82601229 15.2109375 15.36328125 C16.9609375 16.30078125 16.9609375 16.30078125 17.5859375 18.36328125 C17.7715625 19.32234375 17.7715625 19.32234375 17.9609375 20.30078125 C18.6209375 20.63078125 19.2809375 20.96078125 19.9609375 21.30078125 C20.5859375 23.86328125 20.5859375 23.86328125 20.9609375 26.30078125 C17.0009375 26.79578125 17.0009375 26.79578125 12.9609375 27.30078125 C12.9609375 26.64078125 12.9609375 25.98078125 12.9609375 25.30078125 C13.9509375 24.64078125 14.9409375 23.98078125 15.9609375 23.30078125 C13.9809375 23.30078125 12.0009375 23.30078125 9.9609375 23.30078125 C9.9609375 22.31078125 9.9609375 21.32078125 9.9609375 20.30078125 C8.3109375 20.30078125 6.6609375 20.30078125 4.9609375 20.30078125 C4.9609375 21.29078125 4.9609375 22.28078125 4.9609375 23.30078125 C6.6109375 23.63078125 8.2609375 23.96078125 9.9609375 24.30078125 C10.4559375 26.77578125 10.4559375 26.77578125 10.9609375 29.30078125 C11.6209375 29.30078125 12.2809375 29.30078125 12.9609375 29.30078125 C12.9403125 30.02265625 12.9196875 30.74453125 12.8984375 31.48828125 C12.95914309 34.22003263 13.35352285 36.64334216 13.9609375 39.30078125 C12.9709375 39.63078125 11.9809375 39.96078125 10.9609375 40.30078125 C10.4659375 37.33078125 10.4659375 37.33078125 9.9609375 34.30078125 C9.0946875 34.79578125 9.0946875 34.79578125 8.2109375 35.30078125 C5.9609375 36.30078125 5.9609375 36.30078125 1.9609375 36.30078125 C1.9609375 36.96078125 1.9609375 37.62078125 1.9609375 38.30078125 C2.9509375 38.79578125 2.9509375 38.79578125 3.9609375 39.30078125 C3.3009375 40.95078125 2.6409375 42.60078125 1.9609375 44.30078125 C1.3009375 44.30078125 0.6409375 44.30078125 -0.0390625 44.30078125 C-0.0390625 43.64078125 -0.0390625 42.98078125 -0.0390625 42.30078125 C-0.6990625 42.30078125 -1.3590625 42.30078125 -2.0390625 42.30078125 C-2.0390625 43.95078125 -2.0390625 45.60078125 -2.0390625 47.30078125 C-2.6990625 47.30078125 -3.3590625 47.30078125 -4.0390625 47.30078125 C-4.3690625 46.31078125 -4.6990625 45.32078125 -5.0390625 44.30078125 C-7.03922716 43.09196029 -7.03922716 43.09196029 -9.0390625 42.30078125 C-9.0390625 41.64078125 -9.0390625 40.98078125 -9.0390625 40.30078125 C-9.6990625 40.30078125 -10.3590625 40.30078125 -11.0390625 40.30078125 C-11.0390625 39.64078125 -11.0390625 38.98078125 -11.0390625 38.30078125 C-9.7190625 38.30078125 -8.3990625 38.30078125 -7.0390625 38.30078125 C-7.0390625 37.31078125 -7.0390625 36.32078125 -7.0390625 35.30078125 C-9.0190625 35.79578125 -9.0190625 35.79578125 -11.0390625 36.30078125 C-11.0390625 35.64078125 -11.0390625 34.98078125 -11.0390625 34.30078125 C-10.3790625 34.30078125 -9.7190625 34.30078125 -9.0390625 34.30078125 C-9.0390625 32.98078125 -9.0390625 31.66078125 -9.0390625 30.30078125 C-11.98451306 32.73397954 -12.36192967 34.62491732 -13.0390625 38.30078125 C-14.0290625 38.79578125 -14.0290625 38.79578125 -15.0390625 39.30078125 C-14.0490625 42.93078125 -13.0590625 46.56078125 -12.0390625 50.30078125 C-13.3590625 49.97078125 -14.6790625 49.64078125 -16.0390625 49.30078125 C-15.7090625 46.99078125 -15.3790625 44.68078125 -15.0390625 42.30078125 C-16.6890625 41.64078125 -18.3390625 40.98078125 -20.0390625 40.30078125 C-19.37239583 36.96744792 -18.70572917 33.63411458 -18.0390625 30.30078125 C-17.3790625 30.30078125 -16.7190625 30.30078125 -16.0390625 30.30078125 C-16.0390625 28.65078125 -16.0390625 27.00078125 -16.0390625 25.30078125 C-14.0590625 24.64078125 -12.0790625 23.98078125 -10.0390625 23.30078125 C-10.0390625 22.31078125 -10.0390625 21.32078125 -10.0390625 20.30078125 C-9.2965625 20.32140625 -8.5540625 20.34203125 -7.7890625 20.36328125 C-5.11598003 20.40977131 -5.11598003 20.40977131 -2.9140625 19.73828125 C-1.0390625 19.30078125 -1.0390625 19.30078125 1.9609375 20.30078125 C2.4559375 19.80578125 2.4559375 19.80578125 2.9609375 19.30078125 C0.6509375 18.64078125 -1.6590625 17.98078125 -4.0390625 17.30078125 C-4.0390625 15.98078125 -4.0390625 14.66078125 -4.0390625 13.30078125 C-5.0290625 12.97078125 -6.0190625 12.64078125 -7.0390625 12.30078125 C-7.0390625 10.32078125 -7.0390625 8.34078125 -7.0390625 6.30078125 C-9.3490625 6.63078125 -11.6590625 6.96078125 -14.0390625 7.30078125 C-14.0390625 6.64078125 -14.0390625 5.98078125 -14.0390625 5.30078125 C-14.6990625 5.30078125 -15.3590625 5.30078125 -16.0390625 5.30078125 C-15.7090625 6.62078125 -15.3790625 7.94078125 -15.0390625 9.30078125 C-20.7890625 13.30078125 -20.7890625 13.30078125 -23.0390625 13.30078125 C-23.3484375 13.91953125 -23.6578125 14.53828125 -23.9765625 15.17578125 C-24.6640625 16.55078125 -25.3515625 17.92578125 -26.0390625 19.30078125 C-26.6990625 19.30078125 -27.3590625 19.30078125 -28.0390625 19.30078125 C-28.0390625 18.64078125 -28.0390625 17.98078125 -28.0390625 17.30078125 C-28.6990625 17.30078125 -29.3590625 17.30078125 -30.0390625 17.30078125 C-30.0390625 18.29078125 -30.0390625 19.28078125 -30.0390625 20.30078125 C-29.3790625 20.30078125 -28.7190625 20.30078125 -28.0390625 20.30078125 C-28.7265625 22.23828125 -28.7265625 22.23828125 -30.0390625 24.30078125 C-32.6640625 25.05078125 -32.6640625 25.05078125 -35.0390625 25.30078125 C-35.54816654 21.02430729 -35.31207634 19.65079899 -32.6015625 16.17578125 C-31.7559375 15.22703125 -30.9103125 14.27828125 -30.0390625 13.30078125 C-29.9153125 12.59953125 -29.7915625 11.89828125 -29.6640625 11.17578125 C-28.69077421 8.25591637 -26.3371567 7.58643342 -23.73828125 6.2421875 C-21.93481057 5.35207768 -21.93481057 5.35207768 -20.4765625 3.67578125 C-15.39523762 -1.18461647 -6.53046025 -1.0383682 0 0 Z " fill="#7F6C48" transform="translate(41.0390625,2.69921875)"/>
<path d="M0 0 C1.65 0 3.3 0 5 0 C5 0.99 5 1.98 5 3 C8.465 2.505 8.465 2.505 12 2 C11.67 2.99 11.34 3.98 11 5 C10.01 5 9.02 5 8 5 C8 5.66 8 6.32 8 7 C10.97 6.01 13.94 5.02 17 4 C18.125 9.625 18.125 9.625 17 13 C16.34 13 15.68 13 15 13 C15 13.66 15 14.32 15 15 C17.475 15.495 17.475 15.495 20 16 C20 16.66 20 17.32 20 18 C18.35 18.33 16.7 18.66 15 19 C15 19.66 15 20.32 15 21 C15.99 21.33 16.98 21.66 18 22 C17.8125 23.8125 17.8125 23.8125 17 26 C14.12552877 28.09758712 11.49695404 29.35241592 8 30 C8.33 28.35 8.66 26.7 9 25 C8.01 25.33 7.02 25.66 6 26 C5.26676204 28.01508358 5.26676204 28.01508358 5 30 C3.35 30.33 1.7 30.66 0 31 C0 31.99 0 32.98 0 34 C2.97 33.505 2.97 33.505 6 33 C6 32.34 6 31.68 6 31 C9 32 9 32 10 34 C10.99 34.33 11.98 34.66 13 35 C13.6875 37.0625 13.6875 37.0625 14 39 C13.34 39 12.68 39 12 39 C12 39.66 12 40.32 12 41 C10.35 40.34 8.7 39.68 7 39 C7.495 41.475 7.495 41.475 8 44 C7.01 43.505 7.01 43.505 6 43 C6 42.34 6 41.68 6 41 C5.34 41 4.68 41 4 41 C4 42.65 4 44.3 4 46 C2.35 46 0.7 46 -1 46 C-1 46.66 -1 47.32 -1 48 C3.455 47.505 3.455 47.505 8 47 C8 48.65 8 50.3 8 52 C-2.52353395 56.40611515 -9.92584861 57.53697966 -20.734375 53.35546875 C-23.27534529 51.83526756 -23.8907277 51.05577676 -24.6875 48.25 C-24.790625 47.1775 -24.89375 46.105 -25 45 C-24.360625 45.309375 -23.72125 45.61875 -23.0625 45.9375 C-19.07950896 47.31935403 -15.18349151 47.6536543 -11 48 C-11.33 45.69 -11.66 43.38 -12 41 C-11.01 40.505 -11.01 40.505 -10 40 C-10 39.34 -10 38.68 -10 38 C-8.35 38 -6.7 38 -5 38 C-4.7834375 38.9590625 -4.7834375 38.9590625 -4.5625 39.9375 C-4.18992819 41.97545146 -4.18992819 41.97545146 -3 43 C-2.67 42.34 -2.34 41.68 -2 41 C-0.67696283 40.6278958 0.65737935 40.29369827 2 40 C2.33 39.67 2.66 39.34 3 39 C1.02 38.67 -0.96 38.34 -3 38 C-3 36.68 -3 35.36 -3 34 C-3.86625 34.185625 -4.7325 34.37125 -5.625 34.5625 C-9.05152628 35.00667933 -11.64212371 34.71954492 -15 34 C-15 33.01 -15 32.02 -15 31 C-16.65 31 -18.3 31 -20 31 C-19.01 30.67 -18.02 30.34 -17 30 C-17.30035156 29.24074219 -17.60070312 28.48148438 -17.91015625 27.69921875 C-18.29042969 26.70535156 -18.67070312 25.71148437 -19.0625 24.6875 C-19.44535156 23.70136719 -19.82820313 22.71523438 -20.22265625 21.69921875 C-21 19 -21 19 -20 16 C-20 16.66 -20 17.32 -20 18 C-19.34 18 -18.68 18 -18 18 C-18.103125 17.2575 -18.20625 16.515 -18.3125 15.75 C-18 13 -18 13 -15.5 10.6875 C-14.2625 9.8521875 -14.2625 9.8521875 -13 9 C-13.33 10.65 -13.66 12.3 -14 14 C-14.66 14 -15.32 14 -16 14 C-16 14.66 -16 15.32 -16 16 C-14.68 15.67 -13.36 15.34 -12 15 C-12 15.99 -12 16.98 -12 18 C-13.32 18 -14.64 18 -16 18 C-16 18.66 -16 19.32 -16 20 C-15.34 20 -14.68 20 -14 20 C-12.62689293 21.29233607 -11.28965176 22.62437146 -10 24 C-9.67 23.34 -9.34 22.68 -9 22 C-9 23.65 -9 25.3 -9 27 C-8.34 27 -7.68 27 -7 27 C-7 25.35 -7 23.7 -7 22 C-6.34 22 -5.68 22 -5 22 C-5 22.66 -5 23.32 -5 24 C-2.83059079 23.20104587 -2.83059079 23.20104587 -2.3125 21.125 C-1.81011603 18.81816765 -1.81011603 18.81816765 -3 16 C-0.09399739 14.74335022 1.79604584 14 5 14 C5.33 15.98 5.66 17.96 6 20 C6.66 19.67 7.32 19.34 8 19 C7.814375 17.906875 7.62875 16.81375 7.4375 15.6875 C7 12 7 12 8 9 C7.34 9 6.68 9 6 9 C5.67 7.35 5.34 5.7 5 4 C2.525 3.505 2.525 3.505 0 3 C0 2.01 0 1.02 0 0 Z " fill="#6D482E" transform="translate(46,23)"/>
<path d="M0 0 C0.33 0 0.66 0 1 0 C1 13.2 1 26.4 1 40 C-25.4 40 -51.8 40 -79 40 C-79 34.06 -79 28.12 -79 22 C-76.03 19.525 -76.03 19.525 -73 17 C-68.125 21.625 -68.125 21.625 -67 25 C-66.34 25 -65.68 25 -65 25 C-65 25.99 -65 26.98 -65 28 C-64.1028125 28.433125 -64.1028125 28.433125 -63.1875 28.875 C-61 30 -61 30 -58 32 C-58 32.99 -58 33.98 -58 35 C-56.7315625 35.185625 -56.7315625 35.185625 -55.4375 35.375 C-52 36 -52 36 -48.6875 37.0625 C-40.22768028 39.21330162 -33.21358019 37.5792177 -25 35 C-24.896875 34.236875 -24.79375 33.47375 -24.6875 32.6875 C-23.93748935 29.75564017 -23.36645618 28.81061415 -21 27 C-19.72392647 26.44205153 -18.43050024 25.92261779 -17.125 25.4375 C-12.42384702 23.22925199 -11.0457604 19.99794464 -9.10546875 15.33984375 C-7.98525803 12.96879703 -7.0271549 11.63908494 -5 10 C-4.01 9.67 -3.02 9.34 -2 9 C-2.04125 7.88625 -2.0825 6.7725 -2.125 5.625 C-2 2 -2 2 0 0 Z " fill="#0D0A1E" transform="translate(79,40)"/>
<path d="M0 0 C0 1.98 0 3.96 0 6 C2.475 6.495 2.475 6.495 5 7 C4.98839844 7.79921875 4.97679688 8.5984375 4.96484375 9.421875 C4.91880176 15.02584316 4.99769539 20.49055903 5.625 26.0625 C6.55259495 36.58447257 4.60943937 46.52894998 -2 55 C-5.02523469 57.26611446 -8.11026874 59 -12 59 C-12.33 59.99 -12.66 60.98 -13 62 C-16.3 62 -19.6 62 -23 62 C-23 61.34 -23 60.68 -23 60 C-21.35 60 -19.7 60 -18 60 C-18 58.35 -18 56.7 -18 55 C-17 55 -16 55 -15 55 C-15 54.34 -15 53.68 -15 53 C-13.35 53.66 -11.7 54.32 -10 55 C-10 54.34 -10 53.68 -10 53 C-9.34 53 -8.68 53 -8 53 C-8.66 51.68 -9.32 50.36 -10 49 C-10.99 49 -11.98 49 -13 49 C-13.495 47.515 -13.495 47.515 -14 46 C-14.66 45.67 -15.32 45.34 -16 45 C-16 45.66 -16 46.32 -16 47 C-18.97 47.495 -18.97 47.495 -22 48 C-22 47.01 -22 46.02 -22 45 C-19.525 44.505 -19.525 44.505 -17 44 C-16.67 42.35 -16.34 40.7 -16 39 C-15.01 39 -14.02 39 -13 39 C-13.495 41.475 -13.495 41.475 -14 44 C-13.2575 43.525625 -12.515 43.05125 -11.75 42.5625 C-9.38949985 41.22130673 -7.63351523 40.487688 -5 40 C-5 38.68 -5 37.36 -5 36 C-5.66 35.67 -6.32 35.34 -7 35 C-7 34.34 -7 33.68 -7 33 C-4.525 32.505 -4.525 32.505 -2 32 C-2 31.34 -2 30.68 -2 30 C-3.65 29.67 -5.3 29.34 -7 29 C-7 28.34 -7 27.68 -7 27 C-6.34 27 -5.68 27 -5 27 C-4.67 25.35 -4.34 23.7 -4 22 C-4.99 21.67 -5.98 21.34 -7 21 C-6.34 21 -5.68 21 -5 21 C-5 20.01 -5 19.02 -5 18 C-5.66 18 -6.32 18 -7 18 C-7 17.01 -7 16.02 -7 15 C-7.99 14.67 -8.98 14.34 -10 14 C-10 12.68 -10 11.36 -10 10 C-10.7425 9.731875 -11.485 9.46375 -12.25 9.1875 C-14.89061949 8.04723249 -16.85552844 6.90619694 -19 5 C-19 4.34 -19 3.68 -19 3 C-17.68 3 -16.36 3 -15 3 C-14.67 3.66 -14.34 4.32 -14 5 C-13.01 5.33 -12.02 5.66 -11 6 C-11 6.66 -11 7.32 -11 8 C-9.88625 7.938125 -8.7725 7.87625 -7.625 7.8125 C-5.830625 7.9053125 -5.830625 7.9053125 -4 8 C-1.5705484 11.6441774 -1.83820425 13.71241272 -2 18 C-0.68 18.33 0.64 18.66 2 19 C2.33 16.69 2.66 14.38 3 12 C2.360625 11.731875 1.72125 11.46375 1.0625 11.1875 C-1 10 -1 10 -2 7 C-2.66 7 -3.32 7 -4 7 C-4 5.68 -4 4.36 -4 3 C-5.32 3 -6.64 3 -8 3 C-7 1 -7 1 -5.125 0.375 C-3 0 -3 0 0 0 Z " fill="#2B2028" transform="translate(68,9)"/>
<path d="M0 0 C3 0 3 0 4.6875 1.375 C6 3 6 3 6 5 C6.763125 4.814375 7.52625 4.62875 8.3125 4.4375 C11 4 11 4 14 5 C14.33 6.65 14.66 8.3 15 10 C15.66 10 16.32 10 17 10 C16.979375 10.721875 16.95875 11.44375 16.9375 12.1875 C16.99820559 14.91925138 17.39258535 17.34256091 18 20 C17.01 20.33 16.02 20.66 15 21 C14.67 19.02 14.34 17.04 14 15 C13.4225 15.33 12.845 15.66 12.25 16 C10 17 10 17 6 17 C6 17.66 6 18.32 6 19 C6.66 19.33 7.32 19.66 8 20 C7.01 22.475 7.01 22.475 6 25 C5.34 25 4.68 25 4 25 C4 24.34 4 23.68 4 23 C3.34 23 2.68 23 2 23 C2 24.65 2 26.3 2 28 C1.34 28 0.68 28 0 28 C-0.33 27.01 -0.66 26.02 -1 25 C-3.00016466 23.79117904 -3.00016466 23.79117904 -5 23 C-5 22.34 -5 21.68 -5 21 C-5.66 21 -6.32 21 -7 21 C-7 20.34 -7 19.68 -7 19 C-5.68 19 -4.36 19 -3 19 C-3 18.01 -3 17.02 -3 16 C-4.32 16.33 -5.64 16.66 -7 17 C-7 16.34 -7 15.68 -7 15 C-6.34 15 -5.68 15 -5 15 C-5 13.68 -5 12.36 -5 11 C-7.94545056 13.43319829 -8.32286717 15.32413607 -9 19 C-9.66 19.33 -10.32 19.66 -11 20 C-10.01 23.63 -9.02 27.26 -8 31 C-9.32 30.67 -10.64 30.34 -12 30 C-11.67 27.69 -11.34 25.38 -11 23 C-13.475 22.01 -13.475 22.01 -16 21 C-15.33333333 17.66666667 -14.66666667 14.33333333 -14 11 C-13.34 11 -12.68 11 -12 11 C-12 9.35 -12 7.7 -12 6 C-10.02 5.34 -8.04 4.68 -6 4 C-6 3.01 -6 2.02 -6 1 C-4.7934375 1.0309375 -4.7934375 1.0309375 -3.5625 1.0625 C-1.06645115 1.29633621 -1.06645115 1.29633621 0 0 Z " fill="#A76E3A" transform="translate(37,22)"/>
<path d="M0 0 C0.99 0 1.98 0 3 0 C3 2.31 3 4.62 3 7 C1.35 7.33 -0.3 7.66 -2 8 C-2 8.99 -2 9.98 -2 11 C-0.02 10.67 1.96 10.34 4 10 C4 9.34 4 8.68 4 8 C7 9 7 9 8 11 C8.99 11.33 9.98 11.66 11 12 C11.6875 14.0625 11.6875 14.0625 12 16 C11.34 16 10.68 16 10 16 C10 16.66 10 17.32 10 18 C7.525 17.01 7.525 17.01 5 16 C5.495 18.475 5.495 18.475 6 21 C5.34 20.67 4.68 20.34 4 20 C4 19.34 4 18.68 4 18 C3.34 18 2.68 18 2 18 C2 19.65 2 21.3 2 23 C0.35 23 -1.3 23 -3 23 C-3 23.66 -3 24.32 -3 25 C-0.03 24.67 2.94 24.34 6 24 C6 25.65 6 27.3 6 29 C-4.52353395 33.40611515 -11.92584861 34.53697966 -22.734375 30.35546875 C-25.27534529 28.83526756 -25.8907277 28.05577676 -26.6875 25.25 C-26.8421875 23.64125 -26.8421875 23.64125 -27 22 C-26.360625 22.309375 -25.72125 22.61875 -25.0625 22.9375 C-21.07950896 24.31935403 -17.18349151 24.6536543 -13 25 C-13.33 22.69 -13.66 20.38 -14 18 C-13.34 17.67 -12.68 17.34 -12 17 C-12 16.34 -12 15.68 -12 15 C-10.35 15 -8.7 15 -7 15 C-6.855625 15.639375 -6.71125 16.27875 -6.5625 16.9375 C-6.18992819 18.97545146 -6.18992819 18.97545146 -5 20 C-4.67 19.34 -4.34 18.68 -4 18 C-2.67696283 17.6278958 -1.34262065 17.29369827 0 17 C0.33 16.67 0.66 16.34 1 16 C-1.97 15.505 -1.97 15.505 -5 15 C-5 13.68 -5 12.36 -5 11 C-6.98 11.33 -8.96 11.66 -11 12 C-11.66 10.68 -12.32 9.36 -13 8 C-9.535 7.505 -9.535 7.505 -6 7 C-5.731875 6.195625 -5.46375 5.39125 -5.1875 4.5625 C-4.795625 3.716875 -4.40375 2.87125 -4 2 C-3.01 1.67 -2.02 1.34 -1 1 C-1.33 1.99 -1.66 2.98 -2 4 C-1.34 4.33 -0.68 4.66 0 5 C0 3.35 0 1.7 0 0 Z " fill="#4C3A30" transform="translate(48,46)"/>
<path d="M0 0 C0.66 0.33 1.32 0.66 2 1 C1.67 3.97 1.34 6.94 1 10 C3.475 10.99 3.475 10.99 6 12 C6 14.97 6 17.94 6 21 C7.65 21 9.3 21 11 21 C11 21.99 11 22.98 11 24 C11.60328125 24 12.2065625 24 12.828125 24 C16.55208333 24 20.27604167 24 24 24 C24.495 24.99 24.495 24.99 25 26 C24.34 26 23.68 26 23 26 C23 26.66 23 27.32 23 28 C25.31 28 27.62 28 30 28 C28.68 29.32 27.36 30.64 26 32 C25.34 31.67 24.68 31.34 24 31 C23.67 32.32 23.34 33.64 23 35 C20 31.25 20 31.25 20 29 C18.68 28.67 17.36 28.34 16 28 C16.33 28.99 16.66 29.98 17 31 C16.01 31 15.02 31 14 31 C14.33 33.31 14.66 35.62 15 38 C9.49633208 38.32374517 5.56327794 38.53286034 1 35 C1.66 37.31 2.32 39.62 3 42 C2.34 42 1.68 42 1 42 C1 41.01 1 40.02 1 39 C0.1028125 38.566875 0.1028125 38.566875 -0.8125 38.125 C-3 37 -3 37 -6 35 C-6 34.01 -6 33.02 -6 32 C-6.66 31.67 -7.32 31.34 -8 31 C-7.01 31 -6.02 31 -5 31 C-4.67 28.69 -4.34 26.38 -4 24 C-3.34 24 -2.68 24 -2 24 C-2.33 22.35 -2.66 20.7 -3 19 C-1.35 19.33 0.3 19.66 2 20 C1.67 19.113125 1.34 18.22625 1 17.3125 C0.08777857 14.29076653 -0.18330958 12.11626294 0 9 C-0.66 9 -1.32 9 -2 9 C-2 7.68 -2 6.36 -2 5 C-1.34 5 -0.68 5 0 5 C0 3.35 0 1.7 0 0 Z " fill="#392B28" transform="translate(20,33)"/>
<path d="M0 0 C0 0.99 0 1.98 0 3 C0.66 3 1.32 3 2 3 C2 3.66 2 4.32 2 5 C2.66 5.33 3.32 5.66 4 6 C4 6.99 4 7.98 4 9 C1.03 9.99 -1.94 10.98 -5 12 C-5 12.66 -5 13.32 -5 14 C-4.01 14.33 -3.02 14.66 -2 15 C-2.99 15.33 -3.98 15.66 -5 16 C-5.33 17.65 -5.66 19.3 -6 21 C-6.66 21 -7.32 21 -8 21 C-8 22.65 -8 24.3 -8 26 C-8.66 24.68 -9.32 23.36 -10 22 C-10.33 23.32 -10.66 24.64 -11 26 C-11.66 26 -12.32 26 -13 26 C-13 27.32 -13 28.64 -13 30 C-12.34 30 -11.68 30 -11 30 C-10.01 35.445 -10.01 35.445 -9 41 C-10.65 40.67 -12.3 40.34 -14 40 C-13.67 41.65 -13.34 43.3 -13 45 C-13.66 45 -14.32 45 -15 45 C-15.33 47.31 -15.66 49.62 -16 52 C-17.875 51.8125 -17.875 51.8125 -20 51 C-21.25 48.4375 -21.25 48.4375 -22 46 C-20.68 46.33 -19.36 46.66 -18 47 C-18.33 45.35 -18.66 43.7 -19 42 C-18.34 42 -17.68 42 -17 42 C-17 41.34 -17 40.68 -17 40 C-15.5 38.375 -15.5 38.375 -14 37 C-15.32 37 -16.64 37 -18 37 C-18 35.35 -18 33.7 -18 32 C-17.01 32 -16.02 32 -15 32 C-15 31.34 -15 30.68 -15 30 C-16.65 29.67 -18.3 29.34 -20 29 C-20 28.34 -20 27.68 -20 27 C-18.35 26.67 -16.7 26.34 -15 26 C-15 25.34 -15 24.68 -15 24 C-15.99 24 -16.98 24 -18 24 C-18.43200679 19.24792529 -16.98489083 16.21789302 -15 12 C-14.34 12 -13.68 12 -13 12 C-12.67 10.35 -12.34 8.7 -12 7 C-10.68 6.67 -9.36 6.34 -8 6 C-8 5.34 -8 4.68 -8 4 C-2.58823529 0 -2.58823529 0 0 0 Z " fill="#59412F" transform="translate(31,12)"/>
<path d="M0 0 C0 1.98 0 3.96 0 6 C1.65 6.33 3.3 6.66 5 7 C4.98839844 7.79921875 4.97679688 8.5984375 4.96484375 9.421875 C4.91880176 15.02584316 4.99769539 20.49055903 5.625 26.0625 C6.49286474 35.72387657 5.15481079 44.30648651 -1 52 C-1.66 52.66 -2.32 53.32 -3 54 C-3.99 54 -4.98 54 -6 54 C-9 48.375 -9 48.375 -9 45 C-6.03 45.66 -3.06 46.32 0 47 C0.33 44.69 0.66 42.38 1 40 C-0.485 40.495 -0.485 40.495 -2 41 C-1.97679688 40.18917969 -1.95359375 39.37835938 -1.9296875 38.54296875 C-1.75917472 28.08079171 -2.0783776 18.8824336 -8 10 C-6.68 9.34 -5.36 8.68 -4 8 C-1.5705484 11.6441774 -1.83820425 13.71241272 -2 18 C-0.68 18.33 0.64 18.66 2 19 C2.33 16.69 2.66 14.38 3 12 C2.360625 11.731875 1.72125 11.46375 1.0625 11.1875 C-1 10 -1 10 -2 7 C-2.66 7 -3.32 7 -4 7 C-4 5.68 -4 4.36 -4 3 C-5.32 3 -6.64 3 -8 3 C-7 1 -7 1 -5.125 0.375 C-3 0 -3 0 0 0 Z " fill="#523E2F" transform="translate(68,9)"/>
<path d="M0 0 C1.65 0 3.3 0 5 0 C5 0.99 5 1.98 5 3 C8.465 2.505 8.465 2.505 12 2 C11.67 2.99 11.34 3.98 11 5 C10.01 5 9.02 5 8 5 C8 5.66 8 6.32 8 7 C10.97 6.01 13.94 5.02 17 4 C18.125 9.625 18.125 9.625 17 13 C16.34 13 15.68 13 15 13 C15 13.66 15 14.32 15 15 C17.475 15.495 17.475 15.495 20 16 C20 16.66 20 17.32 20 18 C18.35 18.33 16.7 18.66 15 19 C15 19.66 15 20.32 15 21 C15.99 21.33 16.98 21.66 18 22 C17.8125 23.8125 17.8125 23.8125 17 26 C14.07913062 28.13144522 11.48870177 29.20407017 8 30 C6.75498803 20.13567438 6.75498803 20.13567438 8 15 C7.67 14.01 7.34 13.02 7 12 C7.33 11.01 7.66 10.02 8 9 C7.34 9 6.68 9 6 9 C5.67 7.35 5.34 5.7 5 4 C3.35 3.67 1.7 3.34 0 3 C0 2.01 0 1.02 0 0 Z " fill="#5C4732" transform="translate(46,23)"/>
<path d="M0 0 C0.66 0 1.32 0 2 0 C2 1.98 2 3.96 2 6 C2.66 6 3.32 6 4 6 C3.67 4.35 3.34 2.7 3 1 C3.99 1.66 4.98 2.32 6 3 C5.38722388 5.96175123 4.74627478 7.38058783 3 10 C3.45375 9.505 3.9075 9.01 4.375 8.5 C6 7 6 7 8 7 C8 6.34 8 5.68 8 5 C12.93057834 5.46224172 17.2872633 7.78171655 21 11 C21.609375 13.10546875 21.609375 13.10546875 22 15 C22.66 15.33 23.32 15.66 24 16 C24.625 18.5625 24.625 18.5625 25 21 C21.04 21.495 21.04 21.495 17 22 C17 21.34 17 20.68 17 20 C17.99 19.34 18.98 18.68 20 18 C18.02 18 16.04 18 14 18 C14 17.01 14 16.02 14 15 C12.35 15 10.7 15 9 15 C8.67 16.32 8.34 17.64 8 19 C7.34 19 6.68 19 6 19 C6 18.34 6 17.68 6 17 C5.01 16.67 4.02 16.34 3 16 C4.32 15.34 5.64 14.68 7 14 C4.69 13.34 2.38 12.68 0 12 C0 10.68 0 9.36 0 8 C-0.99 7.67 -1.98 7.34 -3 7 C-3 5.35 -3 3.7 -3 2 C-2.34 2 -1.68 2 -1 2 C-0.67 1.34 -0.34 0.68 0 0 Z " fill="#836945" transform="translate(37,8)"/>
<path d="M0 0 C0.66 0.33 1.32 0.66 2 1 C1.67 3.97 1.34 6.94 1 10 C3.475 10.99 3.475 10.99 6 12 C6 14.97 6 17.94 6 21 C7.65 21 9.3 21 11 21 C11 21.99 11 22.98 11 24 C11.60328125 24 12.2065625 24 12.828125 24 C16.55208333 24 20.27604167 24 24 24 C24.33 24.66 24.66 25.32 25 26 C24.34 26 23.68 26 23 26 C23 26.66 23 27.32 23 28 C25.31 28 27.62 28 30 28 C28.68 29.32 27.36 30.64 26 32 C25.34 31.67 24.68 31.34 24 31 C23.67 32.32 23.34 33.64 23 35 C20 31.25 20 31.25 20 29 C19.25234375 28.73445313 18.5046875 28.46890625 17.734375 28.1953125 C16.25710937 27.66550781 16.25710937 27.66550781 14.75 27.125 C13.77546875 26.77695312 12.8009375 26.42890625 11.796875 26.0703125 C9.43705673 25.16725355 7.23094884 24.17921582 5 23 C5 22.34 5 21.68 5 21 C4.566875 21.495 4.13375 21.99 3.6875 22.5 C2 24 2 24 -1 24 C-1 24.66 -1 25.32 -1 26 C-1.99 26 -2.98 26 -4 26 C-4 25.34 -4 24.68 -4 24 C-3.34 24 -2.68 24 -2 24 C-2.33 22.35 -2.66 20.7 -3 19 C-1.35 19.33 0.3 19.66 2 20 C1.67 19.113125 1.34 18.22625 1 17.3125 C0.08777857 14.29076653 -0.18330958 12.11626294 0 9 C-0.66 9 -1.32 9 -2 9 C-2 7.68 -2 6.36 -2 5 C-1.34 5 -0.68 5 0 5 C0 3.35 0 1.7 0 0 Z " fill="#402726" transform="translate(20,33)"/>
<path d="M0 0 C0.66 0.33 1.32 0.66 2 1 C2 3.97 2 6.94 2 10 C2.66 10 3.32 10 4 10 C4 10.66 4 11.32 4 12 C3.01 12 2.02 12 1 12 C1 12.99 1 13.98 1 15 C1.99 15 2.98 15 4 15 C4.33 19.29 4.66 23.58 5 28 C4.01 28 3.02 28 2 28 C2.66 29.98 3.32 31.96 4 34 C4.99 34 5.98 34 7 34 C7.33 35.32 7.66 36.64 8 38 C6.68 37.67 5.36 37.34 4 37 C4.33 38.32 4.66 39.64 5 41 C-0.56128428 35.88921082 -1.53270336 28.81118822 -2.015625 21.5859375 C-1.9840587 14.34147215 -0.96404849 7.1706086 0 0 Z " fill="#3F2F28" transform="translate(5,21)"/>
<path d="M0 0 C1.93193012 0.23725458 3.86354031 0.47756841 5.79296875 0.734375 C7.646391 0.95744175 9.51107674 1.08394871 11.375 1.1875 C16.506767 2.33772364 20.81518648 4.82560423 25 8 C25 8.66 25 9.32 25 10 C26.32 10 27.64 10 29 10 C29 11.32 29 12.64 29 14 C29.66 14 30.32 14 31 14 C35.7931825 17.65194857 35.7931825 17.65194857 36.32421875 21.11328125 C36.31374707 23.07846681 36.16594867 25.04180568 36 27 C33.525 26.01 33.525 26.01 31 25 C30.855625 23.906875 30.71125 22.81375 30.5625 21.6875 C30.11711896 18.06877013 30.11711896 18.06877013 29 15 C27.35 15.33 25.7 15.66 24 16 C23.7525 15.05125 23.505 14.1025 23.25 13.125 C22.3142923 9.91306809 22.3142923 9.91306809 19.875 8.625 C19.25625 8.41875 18.6375 8.2125 18 8 C18 7.34 18 6.68 18 6 C16.68 5.67 15.36 5.34 14 5 C14 5.99 14 6.98 14 8 C13.34 8 12.68 8 12 8 C12 6.68 12 5.36 12 4 C7.71 3.67 3.42 3.34 -1 3 C-0.67 2.01 -0.34 1.02 0 0 Z " fill="#826C46" transform="translate(35,2)"/>
<path d="M0 0 C0.05382106 2.62527189 0.09358313 5.24944713 0.125 7.875 C0.14175781 8.62136719 0.15851563 9.36773437 0.17578125 10.13671875 C0.1933959 12.09194461 0.10320189 14.04742021 0 16 C-0.66 16.66 -1.32 17.32 -2 18 C-2.16677282 21.58343976 -2.16677282 21.58343976 -2 25 C-3.98 25.99 -5.96 26.98 -8 28 C-7.9278125 27.17757812 -7.855625 26.35515625 -7.78125 25.5078125 C-7.6884375 24.39148438 -7.595625 23.27515625 -7.5 22.125 C-7.40074219 20.94164063 -7.30148438 19.75828125 -7.19921875 18.5390625 C-7.02600187 15.46191566 -7.11320926 12.56815046 -7.3125 9.5 C-7.36639271 6.74248951 -7.37094176 5.49384415 -5.703125 3.2734375 C-1.86277933 0 -1.86277933 0 0 0 Z " fill="#1D182C" transform="translate(80,24)"/>
<path d="M0 0 C0.53294678 0.20858643 1.06589355 0.41717285 1.61499023 0.63208008 C7.50246903 2.78485476 12.82105674 3.51802714 19.0625 3.6875 C19.92810547 3.72166016 20.79371094 3.75582031 21.68554688 3.79101562 C23.78994387 3.87240114 25.8949457 3.93789769 28 4 C28 4.66 28 5.32 28 6 C26.68 6 25.36 6 24 6 C24 6.66 24 7.32 24 8 C18.59013903 10.88525919 12.43051753 10.98655406 6.609375 9.3125 C4.46232767 8.38571698 2.77208986 7.52686594 1 6 C0 2.75 0 2.75 0 0 Z " fill="#9E7E41" transform="translate(21,68)"/>
<path d="M0 0 C0.66 0.99 1.32 1.98 2 3 C2.99 2.34 3.98 1.68 5 1 C8.6875 1.375 8.6875 1.375 12 2 C12 3.65 12 5.3 12 7 C11.67 6.34 11.34 5.68 11 5 C10.01 5.33 9.02 5.66 8 6 C7.34 6 6.68 6 6 6 C3.78259019 7.84500955 3.78259019 7.84500955 3.5 10.5625 C3.335 11.366875 3.17 12.17125 3 13 C2.01 13.495 2.01 13.495 1 14 C1.99 17.63 2.98 21.26 4 25 C2.68 24.67 1.36 24.34 0 24 C0.33 21.69 0.66 19.38 1 17 C-1.475 16.01 -1.475 16.01 -4 15 C-3.33333333 11.66666667 -2.66666667 8.33333333 -2 5 C-1.34 5 -0.68 5 0 5 C0 3.35 0 1.7 0 0 Z " fill="#A6662F" transform="translate(25,28)"/>
<path d="M0 0 C3.11589506 3.11589506 2.78410073 6.84100728 3.2109375 11.109375 C3.72407288 16.0991742 4.53143053 20.93285571 5.59765625 25.8359375 C6 28 6 28 6 31 C4.02 32.32 2.04 33.64 0 35 C0 23.45 0 11.9 0 0 Z " fill="#1B162C" transform="translate(0,27)"/>
<path d="M0 0 C2.00720923 0.28674418 4.0085944 0.61866701 6 1 C5.80057899 8.83180706 3.57751574 14.42248426 -2 20 C-2.99 20 -3.98 20 -5 20 C-8 14.375 -8 14.375 -8 11 C-3.545 11.99 -3.545 11.99 1 13 C1.33 10.69 1.66 8.38 2 6 C1.01 6.33 0.02 6.66 -1 7 C-1.04254356 5.00045254 -1.04080783 2.99958364 -1 1 C-0.67 0.67 -0.34 0.34 0 0 Z " fill="#3E2D27" transform="translate(67,43)"/>
<path d="M0 0 C1.77074917 -0.02705729 3.54161711 -0.04642195 5.3125 -0.0625 C6.29863281 -0.07410156 7.28476562 -0.08570313 8.30078125 -0.09765625 C11 0 11 0 14 1 C14 2.32 14 3.64 14 5 C14.66 5 15.32 5 16 5 C16 4.01 16 3.02 16 2 C17.32 2.33 18.64 2.66 20 3 C20 3.66 20 4.32 20 5 C20.61875 5.0825 21.2375 5.165 21.875 5.25 C24 6 24 6 25.25 8.0625 C25.4975 8.701875 25.745 9.34125 26 10 C25.34 10.66 24.68 11.32 24 12 C24 11.34 24 10.68 24 10 C22.68 9.67 21.36 9.34 20 9 C20 8.34 20 7.68 20 7 C17.36 7.33 14.72 7.66 12 8 C12 8.66 12 9.32 12 10 C11.34 10 10.68 10 10 10 C9.67 10.99 9.34 11.98 9 13 C8.34 13 7.68 13 7 13 C7.350625 12.46375 7.70125 11.9275 8.0625 11.375 C9.28924249 8.26725237 8.72856431 6.20568297 8 3 C5.36 2.34 2.72 1.68 0 1 C0 0.67 0 0.34 0 0 Z " fill="#614C3A" transform="translate(33,5)"/>
<path d="M0 0 C2 3 2 3 2 5 C2.66 5 3.32 5 4 5 C3.979375 5.721875 3.95875 6.44375 3.9375 7.1875 C3.99820559 9.91925138 4.39258535 12.34256091 5 15 C4.01 15.33 3.02 15.66 2 16 C1.67 14.02 1.34 12.04 1 10 C0.13375 10.495 0.13375 10.495 -0.75 11 C-3 12 -3 12 -7 12 C-7 9.69 -7 7.38 -7 5 C-7.99 5 -8.98 5 -10 5 C-10 4.34 -10 3.68 -10 3 C-3.84765625 2.12109375 -3.84765625 2.12109375 -2 2 C-1.67 2.33 -1.34 2.66 -1 3 C-0.67 2.01 -0.34 1.02 0 0 Z " fill="#8E6336" transform="translate(50,27)"/>
<path d="M0 0 C3.10221616 0.63438578 5.48225798 1.67311319 8.1875 3.3125 C9.22970703 3.92544922 9.22970703 3.92544922 10.29296875 4.55078125 C12.34835484 6.2957429 12.47372229 7.42177082 13 10 C13.66 10.33 14.32 10.66 15 11 C15.625 13.5625 15.625 13.5625 16 16 C12.04 16.495 12.04 16.495 8 17 C8 16.34 8 15.68 8 15 C8.99 14.34 9.98 13.68 11 13 C9.02 13 7.04 13 5 13 C4.34 9.7 3.68 6.4 3 3 C2.01 3 1.02 3 0 3 C0 2.01 0 1.02 0 0 Z " fill="#6E573B" transform="translate(46,13)"/>
<path d="M0 0 C0.66 0 1.32 0 2 0 C2 0.66 2 1.32 2 2 C5.465 1.505 5.465 1.505 9 1 C9.12375 1.969375 9.2475 2.93875 9.375 3.9375 C9.58125 4.948125 9.7875 5.95875 10 7 C10.66 7.33 11.32 7.66 12 8 C12 9.32 12 10.64 12 12 C14.64 12.33 17.28 12.66 20 13 C18.8125 14.5625 18.8125 14.5625 17 16 C14.5625 15.625 14.5625 15.625 12 15 C10.66018514 15.3062434 9.32488113 15.63451555 8 16 C7.34 15.67 6.68 15.34 6 15 C6 15.99 6 16.98 6 18 C4.35 18 2.7 18 1 18 C1 17.34 1 16.68 1 16 C4.36683915 13.56839395 5.73350364 13 10 13 C10 12.01 10 11.02 10 10 C9.01 9.67 8.02 9.34 7 9 C7.33 8.34 7.66 7.68 8 7 C7.34 7 6.68 7 6 7 C6 6.01 6 5.02 6 4 C5.01 4.33 4.02 4.66 3 5 C1.5 3.625 1.5 3.625 0 2 C0 1.34 0 0.68 0 0 Z " fill="#483936" transform="translate(25,8)"/>
<path d="M0 0 C4 6 4 6 4 9 C5.65 8.34 7.3 7.68 9 7 C8 10 8 10 6.22265625 11.16796875 C5.50980469 11.50441406 4.79695313 11.84085938 4.0625 12.1875 C3.35222656 12.53167969 2.64195313 12.87585938 1.91015625 13.23046875 C0 14 0 14 -2 14 C-2.33 14.99 -2.66 15.98 -3 17 C-6.3 17 -9.6 17 -13 17 C-13 16.34 -13 15.68 -13 15 C-11.35 15 -9.7 15 -8 15 C-8 13.35 -8 11.7 -8 10 C-7 10 -6 10 -5 10 C-5 9.34 -5 8.68 -5 8 C-2.525 8.99 -2.525 8.99 0 10 C0 9.34 0 8.68 0 8 C0.66 8 1.32 8 2 8 C1.67 7.4225 1.34 6.845 1 6.25 C0 4 0 4 0 0 Z " fill="#5C452D" transform="translate(58,54)"/>
<path d="M0 0 C0.33 0 0.66 0 1 0 C1 2.97 1 5.94 1 9 C2.32 9.33 3.64 9.66 5 10 C5 10.66 5 11.32 5 12 C4.01 12 3.02 12 2 12 C2 13.65 2 15.3 2 17 C3.32 17 4.64 17 6 17 C5.67 17.99 5.34 18.98 5 20 C4.34 20 3.68 20 3 20 C3 20.66 3 21.32 3 22 C1.35 22.66 -0.3 23.32 -2 24 C-3.4606285 21.35261084 -4 20.10551666 -4 17 C-3.01 17 -2.02 17 -1 17 C-1.14308594 15.78763672 -1.14308594 15.78763672 -1.2890625 14.55078125 C-1.45535156 12.94783203 -1.45535156 12.94783203 -1.625 11.3125 C-1.74101562 10.25675781 -1.85703125 9.20101562 -1.9765625 8.11328125 C-2.0010326 4.86283654 -1.40852563 2.89769204 0 0 Z " fill="#2A1E26" transform="translate(11,32)"/>
<path d="M0 0 C0.66 0 1.32 0 2 0 C2 0.66 2 1.32 2 2 C3.32 1.67 4.64 1.34 6 1 C6 1.66 6 2.32 6 3 C6.66 3.33 7.32 3.66 8 4 C7.34 5.65 6.68 7.3 6 9 C5.34 9 4.68 9 4 9 C4 8.34 4 7.68 4 7 C3.34 7 2.68 7 2 7 C2 8.65 2 10.3 2 12 C1.34 12 0.68 12 0 12 C-0.33 11.01 -0.66 10.02 -1 9 C-3.00016466 7.79117904 -3.00016466 7.79117904 -5 7 C-5 6.34 -5 5.68 -5 5 C-5.66 5 -6.32 5 -7 5 C-7 4.34 -7 3.68 -7 3 C-5.68 3 -4.36 3 -3 3 C-2.67 2.34 -2.34 1.68 -2 1 C-1.34 1.33 -0.68 1.66 0 2 C0 1.34 0 0.68 0 0 Z " fill="#936D32" transform="translate(37,38)"/>
<path d="M0 0 C1.65 0 3.3 0 5 0 C5 0.99 5 1.98 5 3 C8.465 2.505 8.465 2.505 12 2 C11.67 2.99 11.34 3.98 11 5 C10.01 5 9.02 5 8 5 C8.99 6.485 8.99 6.485 10 8 C11.96019681 13.57108568 12.40145375 16.94977714 9.9375 22.3125 C9.628125 22.869375 9.31875 23.42625 9 24 C7.42260948 21.49473271 6.92934246 20.41385129 7.4375 17.4375 C7.623125 16.633125 7.80875 15.82875 8 15 C7.67 14.01 7.34 13.02 7 12 C7.33 11.01 7.66 10.02 8 9 C7.34 9 6.68 9 6 9 C5.67 7.35 5.34 5.7 5 4 C3.35 3.67 1.7 3.34 0 3 C0 2.01 0 1.02 0 0 Z " fill="#392A2D" transform="translate(46,23)"/>
<path d="M0 0 C0.99 0 1.98 0 3 0 C3 2.31 3 4.62 3 7 C1.35 7.33 -0.3 7.66 -2 8 C-2 8.99 -2 9.98 -2 11 C-3.11375 10.9690625 -3.11375 10.9690625 -4.25 10.9375 C-6.70462279 10.99328688 -8.66109261 11.3069904 -11 12 C-11.66 10.68 -12.32 9.36 -13 8 C-9.535 7.505 -9.535 7.505 -6 7 C-5.5978125 5.7934375 -5.5978125 5.7934375 -5.1875 4.5625 C-4.795625 3.716875 -4.40375 2.87125 -4 2 C-3.01 1.67 -2.02 1.34 -1 1 C-1.33 1.99 -1.66 2.98 -2 4 C-1.34 4.33 -0.68 4.66 0 5 C0 3.35 0 1.7 0 0 Z " fill="#965A26" transform="translate(48,46)"/>
<path d="M0 0 C0.50615298 1.26839526 1.00469099 2.53983102 1.5 3.8125 C1.7784375 4.52019531 2.056875 5.22789063 2.34375 5.95703125 C3 8 3 8 3 11 C2.01 11.33 1.02 11.66 0 12 C0 11.01 0 10.02 0 9 C-0.99 9 -1.98 9 -3 9 C-3 10.65 -3 12.3 -3 14 C-4.32 13.67 -5.64 13.34 -7 13 C-6.34 12.34 -5.68 11.68 -5 11 C-5 10.01 -5 9.02 -5 8 C-4.67 7.34 -4.34 6.68 -4 6 C-4.66 6 -5.32 6 -6 6 C-6.33 6.66 -6.66 7.32 -7 8 C-7.33 6.02 -7.66 4.04 -8 2 C-5.09399739 0.74335022 -3.20395416 0 0 0 Z " fill="#773B21" transform="translate(51,37)"/>
<path d="M0 0 C3 0 3 0 5.1875 2 C5.785625 2.66 6.38375 3.32 7 4 C7.33 3.34 7.66 2.68 8 2 C8 3.65 8 5.3 8 7 C8.66 7 9.32 7 10 7 C10 5.35 10 3.7 10 2 C10.66 2 11.32 2 12 2 C12 2.66 12 3.32 12 4 C12.928125 3.01 12.928125 3.01 13.875 2 C16 0 16 0 18 0 C16.66749209 3.5875213 15.169283 6.8364623 13 10 C12.34 10 11.68 10 11 10 C11 9.34 11 8.68 11 8 C9.02 8.66 7.04 9.32 5 10 C5 9.34 5 8.68 5 8 C3.35 7.67 1.7 7.34 0 7 C0.33 6.34 0.66 5.68 1 5 C0.67 4.01 0.34 3.02 0 2 C0 1.34 0 0.68 0 0 Z " fill="#583626" transform="translate(29,43)"/>
<path d="M0 0 C0 0.99 0 1.98 0 3 C-0.99 3 -1.98 3 -3 3 C-3 4.32 -3 5.64 -3 7 C-1.68 7.66 -0.36 8.32 1 9 C0.01 10.485 0.01 10.485 -1 12 C-1.66 12 -2.32 12 -3 12 C-3 11.34 -3 10.68 -3 10 C-3.66 10 -4.32 10 -5 10 C-5 10.99 -5 11.98 -5 13 C-4.34 13 -3.68 13 -3 13 C-3.6875 14.9375 -3.6875 14.9375 -5 17 C-7.625 17.75 -7.625 17.75 -10 18 C-10.50910404 13.72352604 -10.27301384 12.35001774 -7.5625 8.875 C-6.716875 7.92625 -5.87125 6.9775 -5 6 C-4.7215625 4.88625 -4.7215625 4.88625 -4.4375 3.75 C-4 2 -4 2 -1.9375 0.75 C-1.298125 0.5025 -0.65875 0.255 0 0 Z " fill="#675037" transform="translate(16,10)"/>
<path d="M0 0 C-0.47645208 4.28806873 -1.65902484 6.26647487 -5 9 C-5.66 9 -6.32 9 -7 9 C-7.04898437 10.27617187 -7.09796875 11.55234375 -7.1484375 12.8671875 C-7.22346191 14.53648072 -7.29900988 16.20575046 -7.375 17.875 C-7.4059375 18.71675781 -7.436875 19.55851562 -7.46875 20.42578125 C-7.50742188 21.23144531 -7.54609375 22.03710938 -7.5859375 22.8671875 C-7.6173584 23.61081543 -7.6487793 24.35444336 -7.68115234 25.12060547 C-8 27 -8 27 -10 29 C-10.00628943 25.29013298 -9.94650109 21.58411908 -9.875 17.875 C-9.87757812 16.82828125 -9.88015625 15.7815625 -9.8828125 14.703125 C-9.66172178 5.97004175 -9.66172178 5.97004175 -6.1328125 2.2578125 C-3 0 -3 0 0 0 Z " fill="#3B2B2D" transform="translate(12,12)"/>
<path d="M0 0 C0.66 0.33 1.32 0.66 2 1 C0.515 2.485 0.515 2.485 -1 4 C-0.34 4.33 0.32 4.66 1 5 C1.66 4.34 2.32 3.68 3 3 C3.33 4.32 3.66 5.64 4 7 C-1.75 11 -1.75 11 -4 11 C-4 11.66 -4 12.32 -4 13 C-5.65 12.67 -7.3 12.34 -9 12 C-9 10.68 -9 9.36 -9 8 C-8.01 7.67 -7.02 7.34 -6 7 C-5.67 6.01 -5.34 5.02 -5 4 C-3.37667033 2.61423077 -1.71275535 1.27358732 0 0 Z " fill="#76603E" transform="translate(22,5)"/>
<path d="M0 0 C0.66 0 1.32 0 2 0 C2 1.65 2 3.3 2 5 C2.66 5 3.32 5 4 5 C4 4.34 4 3.68 4 3 C4.99 3.33 5.98 3.66 7 4 C6.67 5.65 6.34 7.3 6 9 C4.68 9.33 3.36 9.66 2 10 C2 9.34 2 8.68 2 8 C1.34 8 0.68 8 0 8 C0 8.66 0 9.32 0 10 C-2.31 9.67 -4.62 9.34 -7 9 C-7 8.34 -7 7.68 -7 7 C-6.34 7 -5.68 7 -5 7 C-4.34 5.68 -3.68 4.36 -3 3 C-2.34 3 -1.68 3 -1 3 C-0.67 2.01 -0.34 1.02 0 0 Z " fill="#B09E5F" transform="translate(37,30)"/>
<path d="M0 0 C2.31 0.33 4.62 0.66 7 1 C6.34 3.31 5.68 5.62 5 8 C3.02 7.34 1.04 6.68 -1 6 C-0.67 6.66 -0.34 7.32 0 8 C0.99 8.33 1.98 8.66 3 9 C3 9.66 3 10.32 3 11 C2.236875 10.814375 1.47375 10.62875 0.6875 10.4375 C-2.08967375 9.77180827 -2.08967375 9.77180827 -5 11 C-4.67 9.35 -4.34 7.7 -4 6 C-3.01 5.67 -2.02 5.34 -1 5 C-0.67 3.35 -0.34 1.7 0 0 Z " fill="#7A603A" transform="translate(19,19)"/>
<path d="M0 0 C0 1.98 0 3.96 0 6 C1.65 6.33 3.3 6.66 5 7 C4.67 10.3 4.34 13.6 4 17 C3.67 17 3.34 17 3 17 C3 15.35 3 13.7 3 12 C2.360625 11.731875 1.72125 11.46375 1.0625 11.1875 C-1 10 -1 10 -2 7 C-2.66 7 -3.32 7 -4 7 C-4 5.68 -4 4.36 -4 3 C-5.32 3 -6.64 3 -8 3 C-7 1 -7 1 -5.125 0.375 C-3 0 -3 0 0 0 Z " fill="#4A372F" transform="translate(68,9)"/>
<path d="M0 0 C0.66 0.33 1.32 0.66 2 1 C2 3.97 2 6.94 2 10 C2.66 10 3.32 10 4 10 C4 10.66 4 11.32 4 12 C3.01 12 2.02 12 1 12 C1 12.99 1 13.98 1 15 C1.99 15 2.98 15 4 15 C3.67 17.31 3.34 19.62 3 22 C1.68 22.33 0.36 22.66 -1 23 C-2.42315318 18.11350903 -1.6919778 13.64121661 -1.0625 8.6875 C-0.96259766 7.85154297 -0.86269531 7.01558594 -0.75976562 6.15429688 C-0.51349177 4.10201477 -0.25769102 2.05087981 0 0 Z " fill="#5D4631" transform="translate(5,21)"/>
<path d="M0 0 C0 0.99 0 1.98 0 3 C0.66 3 1.32 3 2 3 C2 3.66 2 4.32 2 5 C2.66 5.33 3.32 5.66 4 6 C4 6.99 4 7.98 4 9 C1.36 9.66 -1.28 10.32 -4 11 C-4.33 9.68 -4.66 8.36 -5 7 C-5.66 6.67 -6.32 6.34 -7 6 C-5.52522876 2.59668175 -4.14385429 0 0 0 Z " fill="#776343" transform="translate(31,12)"/>
<path d="M0 0 C0 1.65 0 3.3 0 5 C-6.941085 7.90617391 -12.45709983 9.4946164 -20 9 C-20 8.67 -20 8.34 -20 8 C-16.92382812 7.70703125 -16.92382812 7.70703125 -13.84765625 7.4140625 C-13.23792969 7.27742188 -12.62820312 7.14078125 -12 7 C-11.67 6.34 -11.34 5.68 -11 5 C-10.34 5.33 -9.68 5.66 -9 6 C-9 5.34 -9 4.68 -9 4 C-7.68 4 -6.36 4 -5 4 C-5 3.34 -5 2.68 -5 2 C-5.99 1.67 -6.98 1.34 -8 1 C-5.10765685 0.17361624 -3.11257569 0 0 0 Z " fill="#936B31" transform="translate(54,70)"/>
<path d="M0 0 C5.61 0 11.22 0 17 0 C17.33 0.66 17.66 1.32 18 2 C20.01669827 3.13350534 20.01669827 3.13350534 22 4 C21.18917969 3.90460938 20.37835938 3.80921875 19.54296875 3.7109375 C11.95582575 2.95133995 5.41164894 3.20278653 -2 5 C-1.34 3.35 -0.68 1.7 0 0 Z " fill="#433127" transform="translate(26,0)"/>
<path d="M0 0 C0.33 0.66 0.66 1.32 1 2 C1.99 2.33 2.98 2.66 4 3 C3.8125 4.8125 3.8125 4.8125 3 7 C0.12552877 9.09758712 -2.50304596 10.35241592 -6 11 C-6.36923077 4.47692308 -6.36923077 4.47692308 -4.5 2.0625 C-4.005 1.711875 -3.51 1.36125 -3 1 C-2.67 1.66 -2.34 2.32 -2 3 C-1.34 3 -0.68 3 0 3 C0 2.01 0 1.02 0 0 Z " fill="#533D2C" transform="translate(60,42)"/>
<path d="M0 0 C0 0.66 0 1.32 0 2 C-1.65 2.66 -3.3 3.32 -5 4 C-5 4.66 -5 5.32 -5 6 C-6.32 6.33 -7.64 6.66 -9 7 C-9.0825 7.78375 -9.165 8.5675 -9.25 9.375 C-10 12 -10 12 -12.0625 13.3125 C-13.0215625 13.6528125 -13.0215625 13.6528125 -14 14 C-13.72777707 10.09813806 -13.27669035 8.32155906 -10.6875 5.3125 C-9.800625 4.549375 -8.91375 3.78625 -8 3 C-7.319375 2.401875 -6.63875 1.80375 -5.9375 1.1875 C-4 0 -4 0 0 0 Z " fill="#2E232C" transform="translate(28,12)"/>
<path d="M0 0 C0 0.99 0 1.98 0 3 C-0.66 3 -1.32 3 -2 3 C-2.33 5.31 -2.66 7.62 -3 10 C-4.875 9.8125 -4.875 9.8125 -7 9 C-8.25 6.4375 -8.25 6.4375 -9 4 C-7.68 4.33 -6.36 4.66 -5 5 C-5.33 3.35 -5.66 1.7 -6 0 C-3.50907189 -1.24546405 -2.58919267 -0.7767578 0 0 Z " fill="#8C6D3E" transform="translate(18,54)"/>
<path d="M0 0 C4.29 0 8.58 0 13 0 C13 0.66 13 1.32 13 2 C12.34 2 11.68 2 11 2 C11 2.66 11 3.32 11 4 C8.29120665 5.35439668 5.99066732 5.06501451 3 5 C3 4.34 3 3.68 3 3 C2.01 3 1.02 3 0 3 C0 2.01 0 1.02 0 0 Z " fill="#B09750" transform="translate(31,73)"/>
<path d="M0 0 C2.97 0.495 2.97 0.495 6 1 C6 1.66 6 2.32 6 3 C6.99 3 7.98 3 9 3 C8.42655063 5.86724686 8.1385485 6.8614515 6 9 C5.01 9 4.02 9 3 9 C0 3.375 0 3.375 0 0 Z " fill="#83633A" transform="translate(59,54)"/>
<path d="M0 0 C3 0 3 0 4.6875 1.375 C6 3 6 3 6 5 C6.78375 4.814375 7.5675 4.62875 8.375 4.4375 C11 4 11 4 13 5 C12.67 6.32 12.34 7.64 12 9 C11.67 8.67 11.34 8.34 11 8 C8.66702567 7.95907063 6.33294775 7.95758277 4 8 C3.67 7.01 3.34 6.02 3 5 C1.35 4.67 -0.3 4.34 -2 4 C-1.34 2.68 -0.68 1.36 0 0 Z " fill="#C49B4B" transform="translate(37,22)"/>
<path d="M0 0 C1.32 0.33 2.64 0.66 4 1 C4 1.66 4 2.32 4 3 C4.928125 3.12375 4.928125 3.12375 5.875 3.25 C8 4 8 4 9.25 6.0625 C9.4975 6.701875 9.745 7.34125 10 8 C9.34 8.66 8.68 9.32 8 10 C8 9.34 8 8.68 8 8 C6.68 7.67 5.36 7.34 4 7 C4 6.34 4 5.68 4 5 C1.69 5.33 -0.62 5.66 -3 6 C-2.34 5.67 -1.68 5.34 -1 5 C-0.34444881 2.47266765 -0.34444881 2.47266765 0 0 Z " fill="#61503C" transform="translate(49,7)"/>
<path d="M0 0 C4.54805635 -0.17835515 7.8794254 0.00214565 12 2 C11.67 3.98 11.34 5.96 11 8 C10.34 8 9.68 8 9 8 C9 6.02 9 4.04 9 2 C8.34 2 7.68 2 7 2 C7 3.98 7 5.96 7 8 C6.67 6.68 6.34 5.36 6 4 C4.02 4 2.04 4 0 4 C0 2.68 0 1.36 0 0 Z " fill="#695742" transform="translate(30,6)"/>
<path d="M0 0 C0.66 0 1.32 0 2 0 C2.33 0.66 2.66 1.32 3 2 C5.02463255 2.65213292 5.02463255 2.65213292 7 3 C6.67 4.98 6.34 6.96 6 9 C5.34 9 4.68 9 4 9 C3.67 8.34 3.34 7.68 3 7 C0.47266765 6.34444881 0.47266765 6.34444881 -2 6 C-1.49396008 3.83125748 -1.00016187 2.00032373 0 0 Z " fill="#61523C" transform="translate(23,60)"/>
<path d="M0 0 C0.33 0.66 0.66 1.32 1 2 C1.66 2 2.32 2 3 2 C2.979375 2.721875 2.95875 3.44375 2.9375 4.1875 C2.99820559 6.91925138 3.39258535 9.34256091 4 12 C3.01 12.33 2.02 12.66 1 13 C0.67 11.02 0.34 9.04 0 7 C-0.66 7 -1.32 7 -2 7 C-2.33 5.35 -2.66 3.7 -3 2 C-2.01 2.33 -1.02 2.66 0 3 C0 2.01 0 1.02 0 0 Z " fill="#AA7132" transform="translate(51,30)"/>
<path d="M0 0 C0.66 0 1.32 0 2 0 C2 0.66 2 1.32 2 2 C3.32 2.33 4.64 2.66 6 3 C6 3.99 6 4.98 6 6 C3.61435923 5.42415568 1.33317216 4.77772405 -1 4 C-1.66 5.98 -2.32 7.96 -3 10 C-3.99 8.68 -4.98 7.36 -6 6 C-5.34 5.01 -4.68 4.02 -4 3 C-3.01 3 -2.02 3 -1 3 C-0.67 2.01 -0.34 1.02 0 0 Z " fill="#6E593C" transform="translate(23,54)"/>
<path d="M0 0 C0.66 0 1.32 0 2 0 C2 0.99 2 1.98 2 3 C3.32 2.67 4.64 2.34 6 2 C6 3.32 6 4.64 6 6 C5.34 6 4.68 6 4 6 C4 6.99 4 7.98 4 9 C1.69 9 -0.62 9 -3 9 C-3 8.34 -3 7.68 -3 7 C-1.35 6.67 0.3 6.34 2 6 C2 5.34 2 4.68 2 4 C1.01 3.67 0.02 3.34 -1 3 C-0.67 2.01 -0.34 1.02 0 0 Z " fill="#6B5235" transform="translate(14,32)"/>
<path d="M0 0 C2.475 0.99 2.475 0.99 5 2 C5 4.64 5 7.28 5 10 C2.5625 9.25 2.5625 9.25 0 8 C-1.35886391 5.08814875 -0.96392528 2.99887865 0 0 Z " fill="#A4834C" transform="translate(66,19)"/>
<path d="M0 0 C0.99 0.33 1.98 0.66 3 1 C3 1.99 3 2.98 3 4 C4.36125 4.433125 4.36125 4.433125 5.75 4.875 C8.32202908 5.76531776 10.61346766 6.71494413 13 8 C13 8.66 13 9.32 13 10 C8.32107261 9.54128163 4.64484324 9.10883688 1 6 C0.1875 2.8125 0.1875 2.8125 0 0 Z " fill="#7C572A" transform="translate(21,68)"/>
<path d="M0 0 C1.32 0 2.64 0 4 0 C4.33 0.66 4.66 1.32 5 2 C5.99 2.33 6.98 2.66 8 3 C8 3.66 8 4.32 8 5 C9.32 5.66 10.64 6.32 12 7 C12 7.66 12 8.32 12 9 C11.34 9 10.68 9 10 9 C9.67 9.66 9.34 10.32 9 11 C9 9.68 9 8.36 9 7 C8.2575 6.731875 7.515 6.46375 6.75 6.1875 C4.10938051 5.04723249 2.14447156 3.90619694 0 2 C0 1.34 0 0.68 0 0 Z " fill="#33262C" transform="translate(49,12)"/>
<path d="M0 0 C1.89213369 2.38573379 3.02391783 4.07175348 4 7 C4.99 7 5.98 7 7 7 C7.33 8.32 7.66 9.64 8 11 C6.68 10.67 5.36 10.34 4 10 C4.33 11.32 4.66 12.64 5 14 C2.64099869 11.85545335 1.08853869 10.01441484 0 7 C-0.0777346 4.66796188 -0.08967728 2.33160941 0 0 Z " fill="#563E2C" transform="translate(5,48)"/>
<path d="M0 0 C0.33 0.99 0.66 1.98 1 3 C1.66 3 2.32 3 3 3 C3.33 2.01 3.66 1.02 4 0 C4.67031719 1.9570868 5.33614683 3.91571113 6 5.875 C6.556875 7.51082031 6.556875 7.51082031 7.125 9.1796875 C8 12 8 12 8 14 C6.68 13.67 5.36 13.34 4 13 C4.33 10.69 4.66 8.38 5 6 C2.525 5.01 2.525 5.01 0 4 C0 2.68 0 1.36 0 0 Z " fill="#A1702F" transform="translate(21,39)"/>
<path d="M0 0 C0.33 1.98 0.66 3.96 1 6 C0.34 5.67 -0.32 5.34 -1 5 C-1 4.34 -1 3.68 -1 3 C-1.66 3 -2.32 3 -3 3 C-3 4.65 -3 6.3 -3 8 C-4.65 7.67 -6.3 7.34 -8 7 C-8 6.01 -8 5.02 -8 4 C-2.74285714 0 -2.74285714 0 0 0 Z " fill="#8B7B50" transform="translate(53,61)"/>
<path d="M0 0 C1.80806372 2.71209558 3.06810009 4.89366697 4 8 C3.01 9.485 3.01 9.485 2 11 C1.34 11 0.68 11 0 11 C0 11.66 0 12.32 0 13 C-0.99 13 -1.98 13 -3 13 C-3.66 11.35 -4.32 9.7 -5 8 C-2.525 8.99 -2.525 8.99 0 10 C0 9.34 0 8.68 0 8 C0.66 8 1.32 8 2 8 C1.67 7.4225 1.34 6.845 1 6.25 C0 4 0 4 0 0 Z " fill="#372A29" transform="translate(58,54)"/>
<path d="M0 0 C0.66 0 1.32 0 2 0 C2 0.66 2 1.32 2 2 C3.32 1.67 4.64 1.34 6 1 C6 1.66 6 2.32 6 3 C6.66 3.33 7.32 3.66 8 4 C7.01 5.485 7.01 5.485 6 7 C6 6.34 6 5.68 6 5 C4.68 4.67 3.36 4.34 2 4 C2 4.66 2 5.32 2 6 C1.34 6 0.68 6 0 6 C0 5.34 0 4.68 0 4 C-0.99 4 -1.98 4 -3 4 C-2.67 3.01 -2.34 2.02 -2 1 C-1.34 1.33 -0.68 1.66 0 2 C0 1.34 0 0.68 0 0 Z " fill="#9D7E40" transform="translate(37,38)"/>
<path d="M0 0 C1.65 0 3.3 0 5 0 C5 0.99 5 1.98 5 3 C8.465 2.505 8.465 2.505 12 2 C11.67 2.99 11.34 3.98 11 5 C7.9375 6.1875 7.9375 6.1875 5 7 C5 6.01 5 5.02 5 4 C3.35 3.67 1.7 3.34 0 3 C0 2.01 0 1.02 0 0 Z " fill="#463635" transform="translate(46,23)"/>
<path d="M0 0 C3.96 0.99 3.96 0.99 8 2 C8 3.32 8 4.64 8 6 C3.78087253 5.5205537 1.20336822 4.83374881 -2 2 C-1.34 2 -0.68 2 0 2 C0 1.34 0 0.68 0 0 Z " fill="#46342B" transform="translate(29,58)"/>
<path d="M0 0 C-0.1875 2.375 -0.1875 2.375 -1 5 C-3.375 6.375 -3.375 6.375 -6 7 C-6.99 6.67 -7.98 6.34 -9 6 C-8.07213211 4.99105628 -7.13231567 3.99309093 -6.1875 3 C-5.66542969 2.443125 -5.14335938 1.88625 -4.60546875 1.3125 C-3 0 -3 0 0 0 Z " fill="#322528" transform="translate(12,12)"/>
<path d="M0 0 C1.65 0 3.3 0 5 0 C5 0.99 5 1.98 5 3 C6.98 3 8.96 3 11 3 C11 3.66 11 4.32 11 5 C11.66 5 12.32 5 13 5 C13 5.66 13 6.32 13 7 C11.39120578 6.60157441 9.78801827 6.18046843 8.1875 5.75 C7.29417969 5.51796875 6.40085937 5.2859375 5.48046875 5.046875 C2.62353901 3.84111568 1.61630966 2.59898297 0 0 Z " fill="#281C25" transform="translate(26,54)"/>
<path d="M0 0 C2.475 0.495 2.475 0.495 5 1 C5.33 3.31 5.66 5.62 6 8 C4.35 8.33 2.7 8.66 1 9 C1.99 7.68 2.98 6.36 4 5 C2.68 5 1.36 5 0 5 C0 3.35 0 1.7 0 0 Z " fill="#4D3A2C" transform="translate(13,44)"/>
<path d="M0 0 C0.66 0.33 1.32 0.66 2 1 C1.67 3.97 1.34 6.94 1 10 C1.66 10 2.32 10 3 10 C2.34 11.32 1.68 12.64 1 14 C0.67 14 0.34 14 0 14 C0 12.35 0 10.7 0 9 C-0.66 9 -1.32 9 -2 9 C-2 7.68 -2 6.36 -2 5 C-1.34 5 -0.68 5 0 5 C0 3.35 0 1.7 0 0 Z " fill="#2B212A" transform="translate(20,33)"/>
<path d="M0 0 C1.65 0 3.3 0 5 0 C3.68 2.97 2.36 5.94 1 9 C0.34 9 -0.32 9 -1 9 C-1.33 7.02 -1.66 5.04 -2 3 C-1.34 2.67 -0.68 2.34 0 2 C0 1.34 0 0.68 0 0 Z " fill="#806A47" transform="translate(36,61)"/>
<path d="M0 0 C0 0.99 0 1.98 0 3 C-1.65 3 -3.3 3 -5 3 C-4.67 3.99 -4.34 4.98 -4 6 C-5.65 6 -7.3 6 -9 6 C-9 4.68 -9 3.36 -9 2 C-5.62902617 0.50178941 -3.79557881 0 0 0 Z " fill="#78331D" transform="translate(40,51)"/>
<path d="M0 0 C2.4294516 3.6441774 2.16179575 5.71241272 2 10 C-3.57142857 4.85714286 -3.57142857 4.85714286 -4 1 C-2 0 -2 0 0 0 Z " fill="#5E4A36" transform="translate(64,17)"/>
<path d="M0 0 C0.66 0 1.32 0 2 0 C2 0.99 2 1.98 2 3 C2.66 3 3.32 3 4 3 C4 3.66 4 4.32 4 5 C4.66 5.33 5.32 5.66 6 6 C6 6.99 6 7.98 6 9 C3.625 8.75 3.625 8.75 1 8 C-0.375 6.1875 -0.375 6.1875 -1 4 C-0.625 1.75 -0.625 1.75 0 0 Z " fill="#7B6A4B" transform="translate(29,12)"/>
<path d="M0 0 C0.99 0 1.98 0 3 0 C3 0.66 3 1.32 3 2 C3.66 2.33 4.32 2.66 5 3 C-0.48675196 4.86783046 -5.22192976 5.2358396 -11 5 C-11 4.67 -11 4.34 -11 4 C-7.92382812 3.70703125 -7.92382812 3.70703125 -4.84765625 3.4140625 C-4.23792969 3.27742188 -3.62820312 3.14078125 -3 3 C-2.67 2.34 -2.34 1.68 -2 1 C-1.34 1.33 -0.68 1.66 0 2 C0 1.34 0 0.68 0 0 Z " fill="#79592D" transform="translate(45,74)"/>
<path d="M0 0 C0.66 0 1.32 0 2 0 C2 0.99 2 1.98 2 3 C2.66 3 3.32 3 4 3 C4 4.32 4 5.64 4 7 C2.35 7 0.7 7 -1 7 C-1.33 5.35 -1.66 3.7 -2 2 C-1.34 2 -0.68 2 0 2 C0 1.34 0 0.68 0 0 Z " fill="#120C21" transform="translate(31,64)"/>
<path d="M0 0 C0.99 0 1.98 0 3 0 C3.12375 0.639375 3.2475 1.27875 3.375 1.9375 C3.684375 2.9584375 3.684375 2.9584375 4 4 C4.66 4.33 5.32 4.66 6 5 C6 5.66 6 6.32 6 7 C3.36 7.33 0.72 7.66 -2 8 C-1.01 7.67 -0.02 7.34 1 7 C0.34 5.02 -0.32 3.04 -1 1 C-0.67 0.67 -0.34 0.34 0 0 Z " fill="#884D23" transform="translate(28,46)"/>
<path d="M0 0 C0.33 0 0.66 0 1 0 C1 5.28 1 10.56 1 16 C0.34 16 -0.32 16 -1 16 C-1.22384382 14.27277272 -1.42839969 12.54303993 -1.625 10.8125 C-1.74101562 9.84957031 -1.85703125 8.88664062 -1.9765625 7.89453125 C-2.00194942 4.75924677 -1.34359283 2.80513465 0 0 Z " fill="#1E1727" transform="translate(11,32)"/>
<path d="M0 0 C-0.33 0.99 -0.66 1.98 -1 3 C-2.65 2.67 -4.3 2.34 -6 2 C-6 2.99 -6 3.98 -6 5 C-7.65 5 -9.3 5 -11 5 C-11 4.34 -11 3.68 -11 3 C-7.28026121 0.15549386 -4.62609198 -0.3227506 0 0 Z " fill="#3F3135" transform="translate(37,21)"/>
<path d="M0 0 C0.66 1.32 1.32 2.64 2 4 C-0.31 5.32 -2.62 6.64 -5 8 C-5.625 6.125 -5.625 6.125 -6 4 C-5.34 3.34 -4.68 2.68 -4 2 C-3.01 2 -2.02 2 -1 2 C-0.67 1.34 -0.34 0.68 0 0 Z " fill="#62503A" transform="translate(24,8)"/>
<path d="M0 0 C2.31 0.33 4.62 0.66 7 1 C6.67 2.65 6.34 4.3 6 6 C3 6 3 6 1.3125 4.6875 C0 3 0 3 0 0 Z " fill="#846A3F" transform="translate(19,19)"/>
<path d="M0 0 C1.9453125 -0.29296875 1.9453125 -0.29296875 4.125 -0.1875 C5.40375 -0.125625 6.6825 -0.06375 8 0 C8.33 0.66 8.66 1.32 9 2 C10.32 2.66 11.64 3.32 13 4 C8.05 3.67 3.1 3.34 -2 3 C-1.34 2.01 -0.68 1.02 0 0 Z " fill="#64492F" transform="translate(35,0)"/>
<path d="M0 0 C0.99 0.33 1.98 0.66 3 1 C3.6875 3.0625 3.6875 3.0625 4 5 C3.34 5 2.68 5 2 5 C2 5.66 2 6.32 2 7 C1.01 6.67 0.02 6.34 -1 6 C-1.8125 4.0625 -1.8125 4.0625 -2 2 C-1.34 1.34 -0.68 0.68 0 0 Z " fill="#9A8857" transform="translate(56,57)"/>
<path d="M0 0 C1.32 0 2.64 0 4 0 C3.67 2.31 3.34 4.62 3 7 C0.03 6.505 0.03 6.505 -3 6 C-2.01 5.67 -1.02 5.34 0 5 C0 3.35 0 1.7 0 0 Z " fill="#2F2225" transform="translate(65,49)"/>
<path d="M0 0 C0.66 0.33 1.32 0.66 2 1 C2 3.64 2 6.28 2 9 C1.34 9 0.68 9 0 9 C-0.33 9.66 -0.66 10.32 -1 11 C-1.02688151 9.35425434 -1.04634123 7.70838587 -1.0625 6.0625 C-1.07410156 5.14597656 -1.08570312 4.22945312 -1.09765625 3.28515625 C-1 1 -1 1 0 0 Z " fill="#110F27" transform="translate(1,42)"/>
<path d="M0 0 C0.33 0.66 0.66 1.32 1 2 C1.99 2 2.98 2 4 2 C4.33 3.65 4.66 5.3 5 7 C3.68 7 2.36 7 1 7 C0.67 7.66 0.34 8.32 0 9 C0 6.03 0 3.06 0 0 Z " fill="#2F242D" transform="translate(73,30)"/>
<path d="M0 0 C1.9375 0.3125 1.9375 0.3125 4 1 C4.33 1.99 4.66 2.98 5 4 C4.01 4.33 3.02 4.66 2 5 C2 4.34 2 3.68 2 3 C1.34 3 0.68 3 0 3 C0 4.65 0 6.3 0 8 C-0.66 8 -1.32 8 -2 8 C-2.20086443 4.28400809 -2.1519437 3.22791555 0 0 Z " fill="#89612E" transform="translate(39,42)"/>
<path d="M0 0 C0.33 2.31 0.66 4.62 1 7 C-0.65 7.33 -2.3 7.66 -4 8 C-4.1875 5.125 -4.1875 5.125 -4 2 C-1 0 -1 0 0 0 Z " fill="#9E7E49" transform="translate(10,20)"/>
<path d="M0 0 C-0.99 1.485 -0.99 1.485 -2 3 C-2.99 3 -3.98 3 -5 3 C-5 4.32 -5 5.64 -5 7 C-5.99 7 -6.98 7 -8 7 C-7.34 5.35 -6.68 3.7 -6 2 C-6.99 1.67 -7.98 1.34 -9 1 C-6.04335481 -0.4783226 -3.25770263 -0.06032783 0 0 Z " fill="#756244" transform="translate(35,3)"/>
<path d="M0 0 C0.66 0 1.32 0 2 0 C2.33 1.65 2.66 3.3 3 5 C-0.22791555 7.1519437 -1.28400809 7.20086443 -5 7 C-5 6.34 -5 5.68 -5 5 C-3.35 5 -1.7 5 0 5 C0 3.35 0 1.7 0 0 Z " fill="#271E23" transform="translate(50,64)"/>
<path d="M0 0 C1.65 0.33 3.3 0.66 5 1 C5 2.32 5 3.64 5 5 C4.01 5 3.02 5 2 5 C2 5.66 2 6.32 2 7 C1.01 7 0.02 7 -1 7 C-1 6.34 -1 5.68 -1 5 C-0.34 5 0.32 5 1 5 C0.67 3.35 0.34 1.7 0 0 Z " fill="#2B2028" transform="translate(17,52)"/>
<path d="M0 0 C0.99 0 1.98 0 3 0 C3.66 2.64 4.32 5.28 5 8 C4.01 8 3.02 8 2 8 C2 7.01 2 6.02 2 5 C1.34 5 0.68 5 0 5 C-0.5625 3.0625 -0.5625 3.0625 -1 1 C-0.67 0.67 -0.34 0.34 0 0 Z " fill="#8E4B23" transform="translate(48,37)"/>
<path d="M0 0 C0.33 0.66 0.66 1.32 1 2 C1.99 2.33 2.98 2.66 4 3 C4.33 4.65 4.66 6.3 5 8 C4.34 8 3.68 8 3 8 C3 8.66 3 9.32 3 10 C3.99 10.33 4.98 10.66 6 11 C4.68 11.33 3.36 11.66 2 12 C1 10 1 10 1.9375 6.875 C2.288125 5.92625 2.63875 4.9775 3 4 C1.35 3.67 -0.3 3.34 -2 3 C-1.34 2.67 -0.68 2.34 0 2 C0 1.34 0 0.68 0 0 Z " fill="#58473A" transform="translate(23,16)"/>
<path d="M0 0 C1.65 0 3.3 0 5 0 C5 2 5 2 3.625 3.625 C2 5 2 5 0 5 C-0.33 5.99 -0.66 6.98 -1 8 C-1.66 8 -2.32 8 -3 8 C-2.5359375 7.13375 -2.5359375 7.13375 -2.0625 6.25 C-1.07416636 4.15705816 -0.4831387 2.25464725 0 0 Z " fill="#443433" transform="translate(43,10)"/>
<path d="M0 0 C0.66 0 1.32 0 2 0 C2.39253254 4.44870215 1.15305957 7.14243493 -1 11 C-1.33 10.34 -1.66 9.68 -2 9 C-2.99 8.67 -3.98 8.34 -5 8 C-4.01 8 -3.02 8 -2 8 C-1.7834375 7.13375 -1.7834375 7.13375 -1.5625 6.25 C-1.04166667 4.16666667 -0.52083333 2.08333333 0 0 Z " fill="#553C2A" transform="translate(70,48)"/>
<path d="M0 0 C2.9375 0.375 2.9375 0.375 6 1 C6.33 1.66 6.66 2.32 7 3 C4.69 3 2.38 3 0 3 C0 3.99 0 4.98 0 6 C-0.66 6 -1.32 6 -2 6 C-1.34 4.02 -0.68 2.04 0 0 Z " fill="#1B1325" transform="translate(58,51)"/>
<path d="M0 0 C0.33 0 0.66 0 1 0 C1 1.65 1 3.3 1 5 C1.99 5 2.98 5 4 5 C4 6.32 4 7.64 4 9 C2.35 9.66 0.7 10.32 -1 11 C-0.67 7.37 -0.34 3.74 0 0 Z " fill="#2E242F" transform="translate(73,41)"/>
<path d="M0 0 C2.31 0.33 4.62 0.66 7 1 C7 1.66 7 2.32 7 3 C4.69 3.33 2.38 3.66 0 4 C0 2.68 0 1.36 0 0 Z " fill="#684E31" transform="translate(59,38)"/>
<path d="M0 0 C2.31 0.66 4.62 1.32 7 2 C6.67 3.65 6.34 5.3 6 7 C5.34 7 4.68 7 4 7 C4 5.68 4 4.36 4 3 C2.68 2.67 1.36 2.34 0 2 C0 1.34 0 0.68 0 0 Z " fill="#3F3130" transform="translate(18,25)"/>
<path d="M0 0 C-1.32 0.99 -2.64 1.98 -4 3 C-4.66 2.67 -5.32 2.34 -6 2 C-6.33 3.32 -6.66 4.64 -7 6 C-7.99 4.35 -8.98 2.7 -10 1 C-8.71073008 0.63720544 -7.41846728 0.28503302 -6.125 -0.0625 C-5.40570313 -0.25972656 -4.68640625 -0.45695312 -3.9453125 -0.66015625 C-2 -1 -2 -1 0 0 Z " fill="#281E28" transform="translate(50,62)"/>
<path d="M0 0 C0.99 0 1.98 0 3 0 C3 2.31 3 4.62 3 7 C1.68 7 0.36 7 -1 7 C-0.67 4.69 -0.34 2.38 0 0 Z " fill="#AE792F" transform="translate(48,46)"/>
<path d="M0 0 C2.96175123 0.61277612 4.38058783 1.25372522 7 3 C7 3.66 7 4.32 7 5 C5.68 5.33 4.36 5.66 3 6 C3 5.01 3 4.02 3 3 C2.01 3 1.02 3 0 3 C0 2.01 0 1.02 0 0 Z " fill="#8D7A4E" transform="translate(46,13)"/>
<path d="M0 0 C0.99 0.33 1.98 0.66 3 1 C3 1.66 3 2.32 3 3 C2.34 3 1.68 3 1 3 C1.66 4.65 2.32 6.3 3 8 C0.13275314 7.42655063 -0.8614515 7.1385485 -3 5 C-2.01 5 -1.02 5 0 5 C0 3.35 0 1.7 0 0 Z " fill="#533E2D" transform="translate(15,59)"/>
<path d="M0 0 C0 0.99 0 1.98 0 3 C-3.75 4.125 -3.75 4.125 -6 3 C-6 2.01 -6 1.02 -6 0 C-3.50907189 -1.24546405 -2.58919267 -0.7767578 0 0 Z " fill="#A5935C" transform="translate(18,54)"/>
<path d="M0 0 C0.99 0 1.98 0 3 0 C3.66 1.65 4.32 3.3 5 5 C5.66 5 6.32 5 7 5 C7 5.66 7 6.32 7 7 C4.20171644 6.61402985 3.1794116 6.19863427 1.25 4.0625 C0 2 0 2 0 0 Z " fill="#3B2928" transform="translate(29,43)"/>
<path d="M0 0 C3.625 0.375 3.625 0.375 7 1 C7 2.65 7 4.3 7 6 C6.67 5.34 6.34 4.68 6 4 C5.01 4.33 4.02 4.66 3 5 C3 3.68 3 2.36 3 1 C1.35 1.33 -0.3 1.66 -2 2 C-1.34 1.34 -0.68 0.68 0 0 Z " fill="#80603E" transform="translate(30,29)"/>
<path d="M0 0 C0.66 0 1.32 0 2 0 C1.44271087 3.34373475 0.64826111 6.03312999 -1 9 C-2.1875 7.3125 -2.1875 7.3125 -3 5 C-1.75 2.25 -1.75 2.25 0 0 Z " fill="#2C1F28" transform="translate(56,38)"/>
<path d="M0 0 C1.65 0 3.3 0 5 0 C5 1.65 5 3.3 5 5 C4.01 4.67 3.02 4.34 2 4 C1.67 4.66 1.34 5.32 1 6 C0.67 4.02 0.34 2.04 0 0 Z " fill="#72512E" transform="translate(43,39)"/>
<path d="M0 0 C2.1519437 3.22791555 2.20086443 4.28400809 2 8 C1.01 8 0.02 8 -1 8 C-1.33 5.69 -1.66 3.38 -2 1 C-1.34 0.67 -0.68 0.34 0 0 Z " fill="#645038" transform="translate(57,29)"/>
<path d="M0 0 C0.99 0 1.98 0 3 0 C3.66 1.32 4.32 2.64 5 4 C2.69 4 0.38 4 -2 4 C-1.34 2.68 -0.68 1.36 0 0 Z " fill="#D7C168" transform="translate(37,22)"/>
<path d="M0 0 C2.31 0.33 4.62 0.66 7 1 C7 1.66 7 2.32 7 3 C4.36 3 1.72 3 -1 3 C-0.67 2.01 -0.34 1.02 0 0 Z " fill="#967B4C" transform="translate(35,2)"/>
<path d="M0 0 C0.99 0.33 1.98 0.66 3 1 C1.71034824 2.37562854 0.37310707 3.70766393 -1 5 C-1.66 5 -2.32 5 -3 5 C-3.33 5.66 -3.66 6.32 -4 7 C-3.43628586 3.73045798 -2.50037734 2.17424117 0 0 Z " fill="#362722" transform="translate(58,67)"/>
<path d="M0 0 C2.475 0.495 2.475 0.495 5 1 C5.66 2.98 6.32 4.96 7 7 C6.34 7 5.68 7 5 7 C5 6.01 5 5.02 5 4 C4.360625 3.71125 3.72125 3.4225 3.0625 3.125 C1 2 1 2 0 0 Z " fill="#2A1F21" transform="translate(16,68)"/>
<path d="M0 0 C1.32 0.33 2.64 0.66 4 1 C3.67 2.98 3.34 4.96 3 7 C2.34 7 1.68 7 1 7 C0.67 4.69 0.34 2.38 0 0 Z " fill="#7D6D49" transform="translate(26,62)"/>
<path d="M0 0 C1.32 0.33 2.64 0.66 4 1 C4 1.66 4 2.32 4 3 C4.99 3.33 5.98 3.66 7 4 C3.79937313 5.60031344 1.27728194 4.03173691 -2 3 C-1.34 2.67 -0.68 2.34 0 2 C0 1.34 0 0.68 0 0 Z " fill="#6C5438" transform="translate(18,22)"/>
<path d="M0 0 C0.99 0 1.98 0 3 0 C3 0.99 3 1.98 3 3 C3.99 3 4.98 3 6 3 C5.67 3.99 5.34 4.98 5 6 C3.68 5.67 2.36 5.34 1 5 C0.67 3.35 0.34 1.7 0 0 Z " fill="#35261E" transform="translate(3,0)"/>
<path d="M0 0 C0.99 0.33 1.98 0.66 3 1 C3.33 2.65 3.66 4.3 4 6 C2.35 6 0.7 6 -1 6 C-0.67 4.02 -0.34 2.04 0 0 Z " fill="#8B784A" transform="translate(40,65)"/>
<path d="M0 0 C0.99 0 1.98 0 3 0 C3 1.98 3 3.96 3 6 C2.01 6 1.02 6 0 6 C0 4.02 0 2.04 0 0 Z " fill="#694F31" transform="translate(5,37)"/>
<path d="M0 0 C2 0 4 0 6 0 C5.1875 1.9375 5.1875 1.9375 4 4 C3.01 4.33 2.02 4.66 1 5 C0.67 3.35 0.34 1.7 0 0 Z " fill="#957641" transform="translate(51,20)"/>
<path d="M0 0 C0.33 0 0.66 0 1 0 C1.1875 2.375 1.1875 2.375 1 5 C-2 7 -2 7 -4.1875 6.625 C-4.785625 6.41875 -5.38375 6.2125 -6 6 C-5.195625 5.566875 -4.39125 5.13375 -3.5625 4.6875 C-0.72153646 3.19525998 -0.72153646 3.19525998 0 0 Z " fill="#271A23" transform="translate(67,60)"/>
<path d="M0 0 C1.32 0 2.64 0 4 0 C4 1.32 4 2.64 4 4 C2.35 4 0.7 4 -1 4 C-0.67 2.68 -0.34 1.36 0 0 Z " fill="#48352A" transform="translate(44,57)"/>
<path d="M0 0 C2.475 0.495 2.475 0.495 5 1 C5 1.66 5 2.32 5 3 C4.34 3 3.68 3 3 3 C3 3.66 3 4.32 3 5 C2.34 5 1.68 5 1 5 C0.67 3.35 0.34 1.7 0 0 Z " fill="#9C8A53" transform="translate(59,54)"/>
<path d="M0 0 C1.65 0 3.3 0 5 0 C4 3 4 3 1.9375 4.1875 C1.298125 4.455625 0.65875 4.72375 0 5 C0 3.35 0 1.7 0 0 Z " fill="#DEBB58" transform="translate(26,27)"/>
</svg>
